<svg width="500" height="500" viewBox="0 0 500 500" fill="none" xmlns="http://www.w3.org/2000/svg">
<path d="M500 382.4H0V382.65H500V382.4Z" fill="#EBEBEB"/>
<path d="M449.9 398.49H416.78V398.74H449.9V398.49Z" fill="#EBEBEB"/>
<path d="M331.22 401.21H292V401.46H331.22V401.21Z" fill="#EBEBEB"/>
<path d="M415.78 389.21H358.76V389.46H415.78V389.21Z" fill="#EBEBEB"/>
<path d="M243.11 390.89H174.48V391.14H243.11V390.89Z" fill="#EBEBEB"/>
<path d="M258.34 390.89H252.01V391.14H258.34V390.89Z" fill="#EBEBEB"/>
<path d="M225.14 395.11H98.33V395.36H225.14V395.11Z" fill="#EBEBEB"/>
<path d="M237 337.8H43.91C42.3973 337.797 40.9475 337.195 39.8789 336.124C38.8102 335.054 38.21 333.603 38.21 332.09V60.66C38.2232 59.156 38.8292 57.718 39.8964 56.6582C40.9637 55.5985 42.406 55.0026 43.91 55H237C238.514 55 239.967 55.6016 241.038 56.6724C242.108 57.7433 242.71 59.1956 242.71 60.71V332.09C242.71 333.604 242.108 335.057 241.038 336.128C239.967 337.198 238.514 337.8 237 337.8V337.8ZM43.91 55.2C42.4636 55.2026 41.0774 55.7791 40.0557 56.8027C39.0339 57.8264 38.46 59.2136 38.46 60.66V332.09C38.46 333.536 39.0339 334.924 40.0557 335.947C41.0774 336.971 42.4636 337.547 43.91 337.55H237C238.447 337.547 239.835 336.971 240.858 335.948C241.881 334.924 242.457 333.537 242.46 332.09V60.66C242.457 59.2127 241.881 57.8255 240.858 56.8021C239.835 55.7787 238.447 55.2026 237 55.2H43.91Z" fill="#EBEBEB"/>
<path d="M453.31 337.8H260.21C258.696 337.797 257.246 337.195 256.175 336.125C255.105 335.054 254.503 333.604 254.5 332.09V60.66C254.516 59.1551 255.124 57.7171 256.193 56.6576C257.262 55.5981 258.705 55.0025 260.21 55H453.31C454.812 55.0052 456.252 55.6022 457.317 56.6617C458.382 57.7212 458.987 59.1578 459 60.66V332.09C459 333.601 458.401 335.05 457.335 336.121C456.268 337.191 454.821 337.795 453.31 337.8V337.8ZM260.21 55.2C258.763 55.2026 257.375 55.7787 256.352 56.8021C255.329 57.8255 254.753 59.2127 254.75 60.66V332.09C254.753 333.537 255.329 334.924 256.352 335.948C257.375 336.971 258.763 337.547 260.21 337.55H453.31C454.757 337.547 456.145 336.971 457.168 335.948C458.191 334.924 458.767 333.537 458.77 332.09V60.66C458.767 59.2127 458.191 57.8255 457.168 56.8021C456.145 55.7787 454.757 55.2026 453.31 55.2H260.21Z" fill="#EBEBEB"/>
<path d="M194.09 137.72L211.61 141.07C210.84 162.42 201.99 180.32 186.3 187.82C160.39 200.2 125.64 179.55 108.68 141.7C108.05 140.29 107.45 138.88 106.88 137.45L117.67 132.19C113.455 130.323 108.826 129.588 104.24 130.06C99.34 114.62 98.33 99.23 100.83 85.96L118.47 85.19C114.075 81.2968 108.745 78.6124 103 77.4C107 65.28 114.43 55.72 124.85 50.74C136.49 45.18 149.93 46.28 162.73 52.63C161.667 56.0063 161.151 59.5307 161.2 63.07L168 55.53C170.377 56.9967 172.668 58.5994 174.86 60.33C170.933 64.0482 168.109 68.7788 166.7 74L181.63 66.34C190.412 75.1367 197.488 85.4848 202.5 96.86C207.551 107.968 210.598 119.881 211.5 132.05C199.77 131.93 194.09 137.72 194.09 137.72Z" fill="#F5F5F5"/>
<path d="M191.93 201.23C191.786 201.23 191.644 201.193 191.518 201.123C191.392 201.053 191.286 200.952 191.21 200.83C154.15 141.61 129 62.15 128.71 61.35C128.667 61.2411 128.648 61.1247 128.652 61.0079C128.657 60.8911 128.685 60.7765 128.736 60.6712C128.787 60.5659 128.859 60.4722 128.947 60.396C129.036 60.3197 129.139 60.2626 129.251 60.2281C129.363 60.1937 129.48 60.1826 129.596 60.1956C129.712 60.2087 129.825 60.2455 129.926 60.3039C130.027 60.3622 130.115 60.4409 130.185 60.5348C130.254 60.6288 130.304 60.7361 130.33 60.85C130.58 61.64 155.7 140.9 192.65 199.93C192.769 200.121 192.808 200.351 192.757 200.571C192.706 200.79 192.571 200.98 192.38 201.1C192.246 201.187 192.09 201.232 191.93 201.23V201.23Z" fill="#E0E0E0"/>
<path d="M145 104.9H144.92C144.809 104.89 144.7 104.858 144.601 104.806C144.503 104.753 144.415 104.682 144.344 104.595C144.274 104.508 144.221 104.408 144.189 104.301C144.157 104.194 144.148 104.081 144.16 103.97C144.16 103.76 146.5 82.31 161.58 68.73C161.661 68.6542 161.757 68.5956 161.861 68.5575C161.966 68.5194 162.077 68.5026 162.188 68.5082C162.299 68.5138 162.407 68.5416 162.507 68.59C162.607 68.6385 162.697 68.7064 162.77 68.79C162.846 68.8721 162.905 68.9686 162.943 69.0738C162.981 69.1791 162.998 69.2908 162.993 69.4026C162.987 69.5144 162.959 69.624 162.911 69.7248C162.862 69.8257 162.794 69.9159 162.71 69.99C148.11 83.14 145.87 103.93 145.84 104.14C145.82 104.349 145.723 104.542 145.567 104.683C145.412 104.824 145.21 104.901 145 104.9V104.9Z" fill="#E0E0E0"/>
<path d="M154.49 128.22C154.307 128.204 154.134 128.126 154 128C136.18 113.88 114.84 113.74 114.41 113.74C114.202 113.717 114.009 113.619 113.869 113.463C113.729 113.307 113.652 113.104 113.652 112.895C113.652 112.686 113.729 112.483 113.869 112.327C114.009 112.171 114.202 112.073 114.41 112.05C114.63 112.05 136.66 112.05 155.07 126.68C155.244 126.821 155.356 127.025 155.38 127.248C155.404 127.471 155.34 127.695 155.2 127.87C155.12 127.983 155.013 128.074 154.889 128.135C154.765 128.196 154.628 128.225 154.49 128.22V128.22Z" fill="#E0E0E0"/>
<path d="M168.46 158.53C168.256 158.527 168.06 158.45 167.907 158.315C167.755 158.179 167.656 157.992 167.63 157.79C167.63 157.54 164.34 131.87 188.63 110.15C188.799 110.002 189.019 109.927 189.243 109.941C189.467 109.955 189.676 110.057 189.825 110.225C189.974 110.392 190.051 110.612 190.038 110.836C190.026 111.06 189.926 111.27 189.76 111.42C166.17 132.51 169.27 157.31 169.31 157.56C169.331 157.674 169.329 157.791 169.304 157.904C169.278 158.017 169.229 158.124 169.161 158.218C169.093 158.311 169.006 158.39 168.906 158.449C168.806 158.508 168.695 158.546 168.58 158.56L168.46 158.53Z" fill="#E0E0E0"/>
<path d="M65.82 149.5C68.35 188.6 87 211 136.94 240.72C174.75 263.22 197.63 298.94 196.23 327.33C214.15 266.25 190 215 162.36 192.05C140.29 173.72 101.12 142.94 65.82 149.5Z" fill="#E6E6E6"/>
<path d="M196.23 328.44H196.14C195.852 328.415 195.585 328.276 195.398 328.055C195.21 327.835 195.118 327.549 195.14 327.26C199.8 265.71 169.14 241.4 139.95 223.44C110.76 205.48 75 168.57 64.85 150C64.7754 149.752 64.7899 149.485 64.8912 149.247C64.9925 149.008 65.174 148.813 65.4044 148.694C65.6348 148.575 65.8994 148.541 66.1525 148.597C66.4056 148.653 66.6311 148.795 66.79 149C75.59 165.09 109.71 202.24 141.09 221.58C170.79 239.88 202.09 264.66 197.33 327.44C197.303 327.713 197.175 327.967 196.972 328.151C196.769 328.336 196.505 328.439 196.23 328.44Z" fill="#F5F5F5"/>
<path d="M192 248.11C183.07 248.11 169.82 245.19 160.09 237.42C159.859 237.237 159.711 236.97 159.677 236.677C159.643 236.385 159.727 236.091 159.91 235.86C160.093 235.629 160.36 235.481 160.653 235.447C160.945 235.413 161.239 235.497 161.47 235.68C172.7 244.68 188.76 246.86 196.58 245.56C196.724 245.536 196.871 245.54 197.013 245.573C197.155 245.605 197.29 245.665 197.408 245.75C197.527 245.834 197.628 245.941 197.706 246.065C197.783 246.189 197.836 246.326 197.86 246.47C197.884 246.614 197.88 246.761 197.847 246.903C197.815 247.045 197.755 247.18 197.67 247.298C197.586 247.417 197.479 247.518 197.355 247.596C197.231 247.673 197.094 247.726 196.95 247.75C195.312 248.001 193.657 248.121 192 248.11V248.11Z" fill="#F5F5F5"/>
<path d="M128.29 236.56C128.147 236.561 128.005 236.534 127.872 236.481C127.739 236.427 127.618 236.348 127.516 236.248C127.414 236.148 127.333 236.028 127.277 235.896C127.221 235.765 127.191 235.623 127.19 235.48C127 227.92 123.72 212.59 112.61 203.08C112.414 202.882 112.299 202.617 112.289 202.339C112.279 202.06 112.374 201.788 112.556 201.576C112.737 201.364 112.991 201.229 113.268 201.196C113.545 201.164 113.824 201.236 114.05 201.4C125.75 211.4 129.2 227.5 129.4 235.4C129.404 235.545 129.379 235.69 129.327 235.826C129.275 235.961 129.196 236.085 129.096 236.19C128.995 236.295 128.875 236.379 128.742 236.438C128.609 236.496 128.465 236.527 128.32 236.53L128.29 236.56Z" fill="#F5F5F5"/>
<path d="M114 227.09H113.9C113.607 227.062 113.337 226.919 113.149 226.692C112.962 226.465 112.872 226.173 112.9 225.88C113.6 218.46 109.97 202.41 99.97 191.55C99.7694 191.34 99.6599 191.059 99.6656 190.769C99.6712 190.478 99.7914 190.202 100 190C100.107 189.901 100.232 189.824 100.369 189.773C100.506 189.722 100.652 189.699 100.797 189.704C100.943 189.71 101.087 189.744 101.219 189.805C101.352 189.866 101.471 189.953 101.57 190.06C112.02 201.42 115.81 218.28 115.07 226.06C115.053 226.334 114.933 226.592 114.735 226.783C114.537 226.973 114.275 227.083 114 227.09V227.09Z" fill="#F5F5F5"/>
<path d="M195.72 265.55C190.34 265.55 183 262.47 176.53 253.92C176.43 253.805 176.354 253.671 176.308 253.525C176.262 253.38 176.246 253.226 176.262 253.074C176.278 252.923 176.325 252.776 176.4 252.643C176.475 252.51 176.577 252.394 176.699 252.302C176.821 252.211 176.961 252.145 177.109 252.11C177.258 252.075 177.412 252.07 177.562 252.097C177.712 252.124 177.856 252.182 177.982 252.267C178.109 252.352 178.217 252.462 178.3 252.59C186.3 263.16 196.08 264.98 200.06 262.22C200.302 262.056 200.599 261.994 200.887 262.046C201.175 262.099 201.431 262.261 201.6 262.5C201.684 262.619 201.743 262.754 201.774 262.896C201.805 263.038 201.808 263.185 201.782 263.328C201.756 263.472 201.701 263.608 201.622 263.731C201.543 263.853 201.44 263.958 201.32 264.04C199.646 265.092 197.696 265.618 195.72 265.55V265.55Z" fill="#F5F5F5"/>
<path d="M71.82 313.06C80.47 322.59 97.22 327.23 96.99 316.52C97.59 306.52 81.57 308.39 71.82 313.06Z" fill="#F5F5F5"/>
<path d="M67.64 291.4C71.17 299.58 82.33 307.4 85.64 299.95C89.29 293 76.69 290.68 67.64 291.4Z" fill="#F5F5F5"/>
<path d="M86.64 328.76C96.21 337.17 112.97 339.68 111.19 328.87C110.33 318.68 95.3 322.74 86.64 328.76Z" fill="#F5F5F5"/>
<path d="M103 342.62C113.39 349.86 130 350.27 126.61 339.53C124.3 329.3 110.48 335.39 103 342.62Z" fill="#F5F5F5"/>
<path d="M120.86 354.53C131.96 360.53 148.12 358.91 143.22 348.4C139.35 338.29 126.94 346.23 120.86 354.53Z" fill="#F5F5F5"/>
<path d="M139.91 364.38C151.61 369.11 167.2 365.48 160.73 355.38C155.35 345.55 144.54 355.18 139.91 364.38Z" fill="#F5F5F5"/>
<path d="M160 372.06C172.19 375.45 187 369.9 179 360.36C172.15 351 163.09 362.12 160 372.06Z" fill="#F5F5F5"/>
<path d="M99.34 288C103.74 295 106.07 308.42 94.94 307.89C83.11 306.54 89.82 293 99.34 288Z" fill="#F5F5F5"/>
<path d="M109.44 299.86C114.57 306.25 118.73 319.52 108.01 320.47C96.49 320.66 101.05 306.15 109.44 299.86Z" fill="#F5F5F5"/>
<path d="M120.73 310.39C126.54 316.15 132.51 329.07 122.34 331.39C111.3 333.11 113.59 317.86 120.73 310.39Z" fill="#F5F5F5"/>
<path d="M133.09 319.55C139.52 324.64 147.28 337.03 137.8 340.7C127.38 343.81 127.32 328.05 133.09 319.55Z" fill="#F5F5F5"/>
<path d="M146.39 327.27C153.39 331.63 162.9 343.27 154.24 348.2C144.57 352.65 142.1 336.64 146.39 327.27Z" fill="#F5F5F5"/>
<path d="M160.5 333.47C167.98 337.04 179.24 347.79 171.5 353.84C162.71 359.54 157.79 343.53 160.5 333.47Z" fill="#F5F5F5"/>
<path d="M190.48 359.69C190.48 359.91 190.48 360.13 190.48 360.35C190.495 360.498 190.475 360.647 190.421 360.785C190.366 360.923 190.28 361.046 190.168 361.144C190.057 361.242 189.923 361.312 189.779 361.348C189.635 361.384 189.484 361.384 189.34 361.35C167.561 358.137 146.636 350.63 127.781 339.266C108.925 327.902 92.5142 312.907 79.5 295.15C79.4058 295.041 79.3379 294.912 79.3016 294.772C79.2652 294.633 79.2614 294.487 79.2904 294.346C79.3194 294.205 79.3804 294.072 79.4688 293.959C79.5572 293.845 79.6705 293.753 79.8 293.69L80.39 293.41C80.6841 293.286 81.0112 293.264 81.3192 293.347C81.6273 293.431 81.8986 293.615 82.09 293.87C94.7834 311.188 110.79 325.812 129.18 336.895C147.57 347.977 167.978 355.297 189.22 358.43C189.539 358.473 189.835 358.62 190.063 358.847C190.29 359.075 190.437 359.371 190.48 359.69V359.69Z" fill="#F5F5F5"/>
<path d="M413.59 65.2C408.67 89 385.86 112.7 375.94 95C365.34 79.35 393.22 67 413.59 65.2Z" fill="#E6E6E6"/>
<path d="M399.56 25.91C401.69 42.64 391.03 66.08 378.48 57.16C365.87 49.38 384.14 33.46 399.56 25.91Z" fill="#E6E6E6"/>
<path d="M404.57 105C397.07 127.9 372.19 148.1 364.7 128.8C356.31 111.39 384.66 103.55 404.57 105Z" fill="#E6E6E6"/>
<path d="M391.19 143.35C381.19 165.13 354.67 181.72 349.78 161.03C343.78 142.11 372.12 138.73 391.19 143.35Z" fill="#E6E6E6"/>
<path d="M373.64 179.87C361.35 200.33 333.46 213.22 331.34 191.4C327.91 171.21 355.75 172.22 373.64 179.87Z" fill="#E6E6E6"/>
<path d="M352.1 214.23C337.6 233.23 308.74 242.23 309.54 219.6C308.85 198.42 335.72 203.7 352.1 214.23Z" fill="#E6E6E6"/>
<path d="M326.74 246.07C310.16 263.31 280.66 268.55 284.53 245.33C286.73 223.44 312.18 232.85 326.74 246.07Z" fill="#E6E6E6"/>
<path d="M344.72 50.94C344.28 66.53 353.41 90.65 371.02 79.09C388.94 65.44 365 49.88 344.72 50.94Z" fill="#E6E6E6"/>
<path d="M339.65 79.89C337.44 95.24 343.44 120.83 361.8 112.07C380.72 101.3 359.36 82.06 339.65 79.89Z" fill="#E6E6E6"/>
<path d="M331.39 107.89C327.48 122.89 330.19 149.64 349 143.69C368.59 135.82 350.2 113.18 331.39 107.89Z" fill="#E6E6E6"/>
<path d="M320.09 134.69C314.51 149.15 313.78 176.79 332.75 173.69C352.71 168.69 337.64 143 320.09 134.69Z" fill="#E6E6E6"/>
<path d="M305.87 160.05C298.68 173.86 294.38 202.05 313.21 201.67C333.23 199.61 321.84 171.18 305.87 160.05Z" fill="#E6E6E6"/>
<path d="M288.85 183.72C280.1 196.72 272.11 225.05 290.53 227.45C310.32 228.27 302.93 197.49 288.85 183.72Z" fill="#E6E6E6"/>
<path d="M265.26 255.24L265.83 256.35C265.955 256.593 266.135 256.804 266.356 256.966C266.577 257.128 266.832 257.236 267.102 257.281C267.372 257.327 267.649 257.309 267.911 257.229C268.172 257.149 268.412 257.009 268.61 256.82C300.976 230.643 327.82 198.299 347.585 161.664C367.351 125.029 379.643 84.8335 383.75 43.41C383.801 43.1423 383.788 42.8665 383.714 42.6043C383.64 42.3421 383.507 42.1007 383.323 41.8991C383.14 41.6974 382.913 41.5411 382.659 41.4423C382.405 41.3436 382.131 41.3051 381.86 41.33L380.63 41.43C380.031 41.5129 379.477 41.7928 379.055 42.2256C378.633 42.6584 378.368 43.2194 378.3 43.82C374.293 84.2176 362.302 123.417 343.025 159.144C323.747 194.87 297.565 226.413 266 251.94C265.532 252.333 265.207 252.869 265.073 253.465C264.939 254.061 265.005 254.685 265.26 255.24Z" fill="#E6E6E6"/>
<path d="M316.49 374.29C307.56 326.79 323.01 294.29 373.6 243.52C411.92 205.07 428.34 155.39 417.98 121.88C458.07 189.41 444.83 258.1 418.86 293.88C398.09 322.57 360.69 371.33 316.49 374.29Z" fill="#F0F0F0"/>
<path d="M316.49 375.66C316.378 375.658 316.267 375.641 316.16 375.61C315.985 375.568 315.819 375.491 315.674 375.385C315.528 375.278 315.406 375.144 315.312 374.989C315.219 374.835 315.158 374.663 315.132 374.485C315.106 374.307 315.115 374.125 315.16 373.95C321.6 348.69 353.06 293.69 382.45 263.27C411.84 232.85 441.07 194.45 416.68 122.32C416.587 121.983 416.626 121.623 416.79 121.314C416.953 121.005 417.229 120.77 417.56 120.658C417.891 120.545 418.252 120.564 418.57 120.709C418.888 120.855 419.139 121.116 419.27 121.44C444.15 195.03 414.32 234.21 384.41 265.17C352.82 297.87 323.41 352.7 317.81 374.63C317.732 374.922 317.561 375.18 317.322 375.366C317.084 375.552 316.792 375.655 316.49 375.66V375.66Z" fill="#E0E0E0"/>
<path d="M403.34 242.59C403.086 242.589 402.838 242.517 402.623 242.383C402.408 242.249 402.234 242.057 402.121 241.83C402.008 241.603 401.96 241.35 401.983 241.097C402.006 240.844 402.098 240.603 402.25 240.4C413.44 225.58 432.9 217.67 443.15 216.78C443.331 216.762 443.513 216.78 443.687 216.833C443.861 216.886 444.022 216.974 444.162 217.09C444.302 217.206 444.417 217.349 444.501 217.51C444.585 217.671 444.636 217.847 444.651 218.028C444.667 218.209 444.646 218.392 444.59 218.564C444.534 218.737 444.444 218.897 444.326 219.035C444.208 219.173 444.063 219.286 443.901 219.368C443.738 219.449 443.561 219.498 443.38 219.51C433.64 220.35 415.11 227.9 404.43 242.05C404.303 242.219 404.139 242.356 403.949 242.45C403.76 242.544 403.551 242.592 403.34 242.59Z" fill="#E0E0E0"/>
<path d="M357.15 298.1C356.87 298.1 356.598 298.013 356.37 297.85C356.073 297.64 355.871 297.322 355.808 296.965C355.744 296.607 355.824 296.239 356.03 295.94C366.4 281.19 365.63 261.86 363.55 252.76C363.51 252.585 363.505 252.405 363.535 252.228C363.564 252.051 363.629 251.882 363.724 251.73C363.819 251.578 363.943 251.447 364.089 251.343C364.235 251.239 364.4 251.165 364.575 251.125C364.75 251.085 364.93 251.08 365.107 251.11C365.284 251.139 365.453 251.204 365.605 251.299C365.757 251.394 365.888 251.518 365.992 251.664C366.096 251.81 366.17 251.975 366.21 252.15C368.4 261.69 369.21 281.97 358.27 297.51C358.144 297.691 357.976 297.838 357.782 297.941C357.587 298.044 357.37 298.098 357.15 298.1V298.1Z" fill="#E0E0E0"/>
<path d="M345.6 315.62C345.376 315.618 345.156 315.56 344.96 315.45C344.801 315.366 344.66 315.251 344.546 315.113C344.432 314.974 344.346 314.814 344.294 314.642C344.242 314.47 344.225 314.289 344.243 314.11C344.261 313.931 344.314 313.758 344.4 313.6C353.03 297.6 352.46 277.28 349.4 268.6C349.306 268.267 349.341 267.91 349.499 267.601C349.657 267.293 349.926 267.056 350.252 266.938C350.578 266.82 350.936 266.83 351.255 266.966C351.574 267.102 351.829 267.353 351.97 267.67C355.24 276.8 355.87 298.11 346.85 314.88C346.732 315.108 346.552 315.298 346.331 315.429C346.11 315.56 345.857 315.626 345.6 315.62V315.62Z" fill="#E0E0E0"/>
<path d="M418.15 217.53C417.967 217.533 417.786 217.496 417.62 217.42C417.454 217.351 417.303 217.25 417.176 217.123C417.05 216.995 416.949 216.844 416.882 216.677C416.814 216.511 416.779 216.333 416.781 216.153C416.782 215.973 416.819 215.795 416.89 215.63C424.2 198.22 437.04 193.63 443.42 195.96C443.602 196.011 443.772 196.099 443.919 196.219C444.066 196.339 444.186 196.488 444.272 196.657C444.358 196.826 444.408 197.011 444.419 197.2C444.43 197.389 444.402 197.578 444.336 197.756C444.27 197.934 444.168 198.096 444.036 198.232C443.904 198.368 443.746 198.476 443.57 198.547C443.395 198.619 443.207 198.654 443.017 198.649C442.828 198.644 442.642 198.6 442.47 198.52C436.87 196.45 425.74 201.61 419.41 216.69C419.307 216.939 419.132 217.152 418.908 217.302C418.683 217.451 418.42 217.531 418.15 217.53Z" fill="#E0E0E0"/>
<path d="M250 427.56C357.082 427.56 443.89 422.492 443.89 416.24C443.89 409.988 357.082 404.92 250 404.92C142.917 404.92 56.11 409.988 56.11 416.24C56.11 422.492 142.917 427.56 250 427.56Z" fill="#F5F5F5"/>
<path d="M328.71 74.93H171.3C162.845 74.93 155.99 81.7845 155.99 90.24V398.76C155.99 407.215 162.845 414.07 171.3 414.07H328.71C337.165 414.07 344.02 407.215 344.02 398.76V90.24C344.02 81.7845 337.165 74.93 328.71 74.93Z" fill="#FF5050"/>
<path d="M338.94 100.45H161.06C159.922 100.45 159 101.372 159 102.51V386.86C159 387.998 159.922 388.92 161.06 388.92H338.94C340.078 388.92 341 387.998 341 386.86V102.51C341 101.372 340.078 100.45 338.94 100.45Z" fill="white"/>
<path d="M341 162.67H187.35L159 102.51C159 102.239 159.053 101.972 159.157 101.722C159.26 101.472 159.412 101.245 159.603 101.053C159.795 100.862 160.022 100.71 160.272 100.607C160.522 100.503 160.789 100.45 161.06 100.45H338.94C339.486 100.45 340.01 100.667 340.397 101.053C340.783 101.44 341 101.964 341 102.51V162.67Z" fill="#F0F0F0"/>
<path d="M159 102.51V306.33H187.35V162.67L159 102.51Z" fill="#EBEBEB"/>
<path d="M159 315.17V386.85C159 387.397 159.217 387.922 159.603 388.31C159.989 388.698 160.513 388.917 161.06 388.92H338.94C339.487 388.917 340.011 388.698 340.397 388.31C340.783 387.922 341 387.397 341 386.85V198.72L159 315.17Z" fill="#FAFAFA"/>
<path d="M267.531 273.333C273.296 248.908 258.169 224.434 233.744 218.67C209.319 212.905 184.846 228.032 179.081 252.457C173.316 276.881 188.443 301.355 212.868 307.119C237.293 312.884 261.766 297.757 267.531 273.333Z" fill="#EBEBEB"/>
<path d="M273.87 85.78H226.14C225.19 85.78 224.42 86.5501 224.42 87.5C224.42 88.4499 225.19 89.22 226.14 89.22H273.87C274.82 89.22 275.59 88.4499 275.59 87.5C275.59 86.5501 274.82 85.78 273.87 85.78Z" fill="white"/>
<path d="M263.39 407.89H236.61C235.011 407.89 233.477 407.255 232.346 406.124C231.215 404.993 230.58 403.459 230.58 401.86C230.58 400.261 231.215 398.727 232.346 397.596C233.477 396.465 235.011 395.83 236.61 395.83H263.39C264.989 395.83 266.523 396.465 267.654 397.596C268.785 398.727 269.42 400.261 269.42 401.86C269.42 403.459 268.785 404.993 267.654 406.124C266.523 407.255 264.989 407.89 263.39 407.89ZM236.61 396.83C235.276 396.83 233.997 397.36 233.053 398.303C232.11 399.247 231.58 400.526 231.58 401.86C231.58 403.194 232.11 404.473 233.053 405.417C233.997 406.36 235.276 406.89 236.61 406.89H263.39C264.724 406.89 266.003 406.36 266.947 405.417C267.89 404.473 268.42 403.194 268.42 401.86C268.42 400.526 267.89 399.247 266.947 398.303C266.003 397.36 264.724 396.83 263.39 396.83H236.61Z" fill="white"/>
<path d="M329.01 108.17H300.23C299.219 108.17 298.4 108.989 298.4 110V121.01C298.4 122.021 299.219 122.84 300.23 122.84H329.01C330.021 122.84 330.84 122.021 330.84 121.01V110C330.84 108.989 330.021 108.17 329.01 108.17Z" fill="#263238"/>
<path d="M307.52 117.72C305.856 117.588 304.298 116.852 303.14 115.65L303 115.5L303.14 115.35C303.674 114.706 304.343 114.188 305.1 113.832C305.857 113.476 306.684 113.292 307.52 113.292C308.356 113.292 309.183 113.476 309.94 113.832C310.697 114.188 311.366 114.706 311.9 115.35L312.04 115.5L311.9 115.65C310.744 116.854 309.185 117.591 307.52 117.72V117.72ZM303.62 115.5C304.105 116.059 304.705 116.508 305.379 116.815C306.053 117.123 306.784 117.282 307.525 117.282C308.266 117.282 308.997 117.123 309.671 116.815C310.345 116.508 310.945 116.059 311.43 115.5C310.945 114.941 310.345 114.492 309.671 114.185C308.997 113.877 308.266 113.718 307.525 113.718C306.784 113.718 306.053 113.877 305.379 114.185C304.705 114.492 304.105 114.941 303.62 115.5V115.5Z" fill="white"/>
<path d="M309.22 115.2C309.22 115.536 309.12 115.865 308.934 116.144C308.747 116.424 308.481 116.642 308.171 116.771C307.86 116.899 307.518 116.933 307.188 116.867C306.859 116.802 306.556 116.64 306.318 116.402C306.08 116.164 305.918 115.861 305.853 115.532C305.787 115.202 305.821 114.86 305.949 114.549C306.078 114.239 306.296 113.973 306.576 113.786C306.855 113.6 307.184 113.5 307.52 113.5C307.971 113.5 308.403 113.679 308.722 113.998C309.041 114.317 309.22 114.749 309.22 115.2Z" fill="white"/>
<path d="M317.271 115.965C317.05 116.182 316.792 116.29 316.497 116.29C316.12 116.29 315.818 116.161 315.592 115.903C315.365 115.644 315.252 115.294 315.252 114.855C315.252 114.575 315.312 114.319 315.434 114.087C315.557 113.853 315.728 113.671 315.946 113.542C316.165 113.411 316.411 113.346 316.685 113.346C316.966 113.346 317.216 113.416 317.435 113.557C317.653 113.697 317.823 113.899 317.944 114.163C318.065 114.427 318.127 114.729 318.129 115.068V115.382C318.129 116.093 317.952 116.651 317.599 117.058C317.245 117.464 316.744 117.681 316.096 117.708L315.888 117.711V117.005L316.075 117.002C316.812 116.969 317.21 116.623 317.271 115.965ZM316.705 115.643C316.842 115.643 316.959 115.607 317.057 115.537C317.156 115.467 317.231 115.382 317.282 115.282V114.934C317.282 114.647 317.228 114.424 317.118 114.266C317.009 114.107 316.862 114.028 316.679 114.028C316.509 114.028 316.369 114.107 316.26 114.263C316.15 114.417 316.096 114.611 316.096 114.846C316.096 115.078 316.148 115.27 316.254 115.42C316.361 115.568 316.512 115.643 316.705 115.643ZM319.597 115.162H320.048C320.263 115.162 320.422 115.108 320.525 115.001C320.629 114.894 320.681 114.751 320.681 114.573C320.681 114.401 320.629 114.268 320.525 114.172C320.424 114.076 320.283 114.028 320.104 114.028C319.941 114.028 319.806 114.073 319.696 114.163C319.587 114.251 319.532 114.366 319.532 114.509H318.686C318.686 114.286 318.745 114.087 318.864 113.911C318.985 113.733 319.153 113.595 319.368 113.495C319.585 113.396 319.823 113.346 320.083 113.346C320.534 113.346 320.888 113.454 321.144 113.671C321.399 113.886 321.527 114.183 321.527 114.562C321.527 114.757 321.468 114.937 321.349 115.101C321.229 115.265 321.073 115.391 320.88 115.479C321.12 115.565 321.299 115.693 321.416 115.865C321.535 116.037 321.595 116.24 321.595 116.475C321.595 116.854 321.456 117.157 321.179 117.386C320.903 117.614 320.538 117.729 320.083 117.729C319.657 117.729 319.309 117.616 319.037 117.392C318.768 117.167 318.633 116.87 318.633 116.501H319.479C319.479 116.661 319.539 116.792 319.658 116.894C319.779 116.995 319.928 117.046 320.104 117.046C320.305 117.046 320.462 116.993 320.575 116.888C320.69 116.78 320.748 116.639 320.748 116.463C320.748 116.037 320.514 115.824 320.045 115.824H319.597V115.162ZM324.237 117.67H323.391V114.406L322.38 114.72V114.031L324.146 113.399H324.237V117.67Z" fill="white"/>
<path d="M290.84 108.17H271.2C270.355 108.17 269.67 108.855 269.67 109.7V121.31C269.67 122.155 270.355 122.84 271.2 122.84H290.84C291.685 122.84 292.37 122.155 292.37 121.31V109.7C292.37 108.855 291.685 108.17 290.84 108.17Z" fill="#FF5050"/>
<path d="M274.61 116.964H276.476V117.67H273.731V113.404H274.61V116.964ZM277.917 117.67H277.038V113.404H277.917V117.67ZM280.311 116.612L281.278 113.404H282.256L280.771 117.67H279.854L278.374 113.404H279.35L280.311 116.612ZM285.227 115.821H283.539V116.964H285.52V117.67H282.661V113.404H285.514V114.116H283.539V115.133H285.227V115.821Z" fill="white"/>
<path d="M181.92 122.578C185.829 118.669 185.829 112.331 181.92 108.422C178.01 104.513 171.672 104.513 167.763 108.422C163.854 112.331 163.854 118.669 167.763 122.578C171.672 126.488 178.01 126.488 181.92 122.578Z" fill="#FF5050"/>
<path d="M183.11 115.5C183.105 117.336 182.49 119.118 181.361 120.566C180.232 122.013 178.653 123.044 176.874 123.496C175.094 123.947 173.215 123.794 171.532 123.059C169.85 122.325 168.459 121.052 167.58 119.44C166.92 118.232 166.576 116.877 166.58 115.5C166.655 113.358 167.558 111.328 169.1 109.839C170.642 108.35 172.701 107.518 174.845 107.518C176.989 107.518 179.048 108.35 180.59 109.839C182.132 111.328 183.035 113.358 183.11 115.5Z" fill="white"/>
<path opacity="0.4" d="M180.68 118.84C180.11 119.89 179.267 120.767 178.24 121.378C177.213 121.989 176.04 122.311 174.845 122.311C173.65 122.311 172.477 121.989 171.45 121.378C170.423 120.767 169.58 119.89 169.01 118.84C170.737 117.686 172.768 117.069 174.845 117.069C176.922 117.069 178.953 117.686 180.68 118.84V118.84Z" fill="#FF5050"/>
<path opacity="0.4" d="M177.8 113.4C177.8 113.993 177.624 114.573 177.294 115.067C176.965 115.56 176.496 115.945 175.948 116.172C175.4 116.399 174.797 116.458 174.215 116.342C173.633 116.227 173.098 115.941 172.679 115.521C172.259 115.102 171.973 114.567 171.858 113.985C171.742 113.403 171.801 112.8 172.028 112.252C172.255 111.704 172.64 111.235 173.133 110.906C173.627 110.576 174.207 110.4 174.8 110.4C175.596 110.4 176.359 110.716 176.921 111.279C177.484 111.841 177.8 112.604 177.8 113.4V113.4Z" fill="#FF5050"/>
<path d="M224.59 286.49L223.54 287.66L222.6 288.66L220.72 290.66C219.47 291.97 218.19 293.24 216.9 294.49C214.34 297.01 211.7 299.42 209 301.78C203.563 306.53 197.85 310.955 191.89 315.03C188.87 317.07 185.77 319.03 182.59 320.91C179.38 322.78 176.09 324.52 172.66 326.13C165.634 329.542 158.21 332.065 150.56 333.64C149.56 333.84 148.56 334.04 147.56 334.18L146.04 334.4L145.28 334.51L144.9 334.57L144.14 334.66C142.44 334.846 140.722 334.785 139.04 334.48C137.525 334.212 136.052 333.744 134.66 333.09C132.599 332.13 130.713 330.832 129.08 329.25C127.014 327.238 125.265 324.925 123.89 322.39C122.825 320.486 121.883 318.515 121.07 316.49C119.635 312.955 118.429 309.33 117.46 305.64C116.53 302.11 115.74 298.64 115.04 295.18C113.71 288.26 112.7 281.43 111.98 274.58C111.26 267.73 110.75 261 110.63 254C110.604 252.207 111.225 250.464 112.38 249.092C113.535 247.72 115.146 246.811 116.918 246.531C118.689 246.252 120.502 246.62 122.023 247.57C123.545 248.519 124.673 249.986 125.2 251.7V251.85C129.01 264.4 132.7 277.22 137.01 289.22C138.06 292.22 139.18 295.16 140.36 297.98C141.453 300.651 142.681 303.264 144.04 305.81C144.596 306.853 145.224 307.855 145.92 308.81C146.48 309.57 147.09 310.08 146.92 309.81C146.517 309.373 146.022 309.031 145.47 308.81C144.835 308.504 144.163 308.282 143.47 308.15C142.613 307.989 141.738 307.949 140.87 308.03H140.71C140.71 308.03 140.56 308.03 140.61 308.03H140.73L140.97 307.97L141.44 307.86L142.39 307.63C143.032 307.493 143.666 307.323 144.29 307.12C146.914 306.366 149.486 305.44 151.99 304.35C154.621 303.236 157.191 301.984 159.69 300.6C164.913 297.698 169.94 294.458 174.74 290.9C177.17 289.06 179.62 287.21 182.01 285.27C184.4 283.33 186.75 281.27 189.08 279.27C191.41 277.27 193.69 275.09 195.94 272.96C197.07 271.9 198.16 270.81 199.26 269.74L200.87 268.14L202.3 266.67L202.73 266.22C205.447 263.41 209.158 261.778 213.066 261.677C216.973 261.576 220.764 263.014 223.622 265.681C226.48 268.347 228.177 272.03 228.346 275.935C228.516 279.84 227.146 283.655 224.53 286.56L224.59 286.49Z" fill="#FF8B7B"/>
<path d="M217.44 257.09C209.29 257.72 197.29 261.81 186.63 275.09C187.71 282.75 196.21 302.59 204.38 317.42C226.79 297.31 236.75 272.45 217.44 257.09Z" fill="#263238"/>
<path d="M126.67 257.54L125.73 237.07L105.26 244.71C105.26 244.71 104.82 251.32 112.5 262.91L126.67 257.54Z" fill="#FF8B7B"/>
<path d="M121.11 264.11C113.32 264.11 109.88 261.63 109.7 261.5C109.594 261.42 109.524 261.302 109.505 261.171C109.486 261.039 109.52 260.906 109.6 260.8C109.68 260.695 109.797 260.624 109.928 260.604C110.058 260.583 110.192 260.614 110.3 260.69C110.3 260.69 115.94 264.69 128.99 262.36C129.054 262.347 129.121 262.347 129.185 262.36C129.25 262.374 129.311 262.4 129.365 262.437C129.419 262.474 129.465 262.522 129.5 262.578C129.535 262.633 129.559 262.695 129.57 262.76C129.593 262.89 129.564 263.024 129.49 263.132C129.415 263.241 129.3 263.316 129.17 263.34C126.512 263.838 123.814 264.096 121.11 264.11V264.11Z" fill="#FF5050"/>
<path d="M110.19 261.92C109.19 261.92 109.93 264.48 110.48 265.34C110.526 265.416 110.591 265.478 110.668 265.522C110.745 265.566 110.831 265.589 110.92 265.59C112.99 265.66 125.78 265.86 128.69 261.42C128.619 260.584 128.416 259.763 128.09 258.99C128.062 258.915 128.018 258.848 127.961 258.792C127.903 258.736 127.834 258.694 127.759 258.668C127.683 258.642 127.603 258.634 127.524 258.643C127.444 258.652 127.368 258.678 127.3 258.72C125.62 259.77 120.27 262.13 110.19 261.92Z" fill="#263238"/>
<path d="M111.23 268.74C111.164 268.75 111.097 268.748 111.033 268.733C110.968 268.717 110.907 268.689 110.853 268.65C110.799 268.611 110.753 268.562 110.719 268.505C110.684 268.449 110.66 268.386 110.65 268.32C110.639 268.254 110.642 268.187 110.657 268.123C110.673 268.058 110.701 267.997 110.74 267.943C110.779 267.889 110.828 267.844 110.885 267.809C110.941 267.774 111.004 267.75 111.07 267.74C123.72 263.56 126.67 257.42 126.7 257.36C126.757 257.239 126.858 257.145 126.984 257.098C127.109 257.051 127.248 257.055 127.37 257.11C127.43 257.137 127.483 257.175 127.528 257.223C127.572 257.271 127.607 257.328 127.629 257.389C127.652 257.451 127.661 257.516 127.658 257.582C127.655 257.647 127.638 257.711 127.61 257.77C127.49 258.04 124.44 264.38 111.39 268.69L111.23 268.74Z" fill="#FF5050"/>
<path d="M112.54 224.41L106.12 227.77C104.606 228.564 103.422 229.868 102.776 231.451C102.13 233.033 102.064 234.793 102.59 236.42L105.26 244.71L125.73 237.07L122.73 228.46C122.389 227.477 121.841 226.578 121.122 225.826C120.403 225.074 119.53 224.485 118.563 224.101C117.596 223.717 116.557 223.545 115.518 223.599C114.478 223.652 113.463 223.929 112.54 224.41V224.41Z" fill="#FF8B7B"/>
<path d="M297.34 388.92H195.18C193.595 353.81 193.862 318.642 195.98 283.56C196.391 276.931 199.032 270.635 203.472 265.696C207.912 260.756 213.892 257.463 220.44 256.35C239.25 253.18 259.29 253.07 280.16 255.04C283.051 255.319 285.857 256.173 288.414 257.551C290.971 258.93 293.227 260.804 295.049 263.066C296.872 265.327 298.225 267.93 299.029 270.721C299.833 273.512 300.071 276.436 299.73 279.32C295.12 317.72 295.74 358.82 297.34 388.92Z" fill="#263238"/>
<path d="M224.57 255.71C224.218 256.835 224.139 258.028 224.34 259.19C225.09 263.9 229.76 269.04 238.23 274.47L239.28 275.14L240.5 274.87C267.87 268.76 274.86 256.87 275.14 256.39L276.14 254.69C258.21 253.22 240.94 253.35 224.57 255.71Z" fill="white"/>
<path d="M267 204.63C264.49 219.09 262.23 245.52 272.51 254.91C272.51 254.91 266.21 266.06 239.83 271.91C223.29 261.31 227.77 255.84 227.77 255.84C243.77 251.66 243.07 239.76 240.04 228.64L267 204.63Z" fill="#FF8B7B"/>
<path opacity="0.2" d="M256 214.44L240 228.65C240.749 231.239 241.267 233.89 241.55 236.57C247.66 235.57 255.94 228.64 256.46 222.2C256.774 219.607 256.618 216.978 256 214.44Z" fill="black"/>
<path d="M226.6 158.07C237.15 153.07 238.65 160.5 238 166.13C237.35 171.76 239 176.91 240.22 184.13C241.44 191.35 233.51 195.31 226.3 194.74C219.09 194.17 214.53 171.58 226.6 158.07Z" fill="#263238"/>
<path d="M275.78 186.82C270.48 205.62 268.33 216.89 256.58 224.59C238.92 236.16 217.29 222.33 216.87 202.33C216.49 184.33 225.23 156.6 245.52 153.07C265.52 149.58 281.08 168 275.78 186.82Z" fill="#FF8B7B"/>
<path d="M271.17 201C259.5 201.83 260.83 194.33 263.5 189.33C266.17 184.33 266.5 178.92 268 171.8C269.5 164.68 278.33 163.8 284.83 167C291.33 170.2 287.33 192.83 271.17 201Z" fill="#263238"/>
<path d="M272.83 169.18C262.35 178.04 261.22 166.33 243.89 167.89C246.06 163.89 251.28 162.04 251.28 162.04C251.28 162.04 226.35 164.44 219.14 155.22C222.22 155.89 228.45 155.94 230.36 154.86C225.2 153.86 218.98 147.38 218.04 141.86C221.85 145.12 228.49 143.31 235.32 142.79C232.01 140.93 231.88 137.79 232.89 136.21C236.26 140.05 248.01 137.38 254.96 140.42C253.642 138.157 251.796 136.246 249.58 134.85C249.58 134.85 272.31 138.98 277.31 146.62C276.724 144.176 275.876 141.802 274.78 139.54C274.78 139.54 285.13 144.44 286.78 152.49C286.4 146.49 291.37 146.78 291.37 146.78C291.37 146.78 288.37 150.11 289.18 156.39C293.18 157.2 296.87 160.86 296.06 164.69C291.3 162.59 288.06 163.11 288.06 163.11C288.06 163.11 297.24 169.22 292.35 177.26C291.74 172.48 288.49 171.72 288.49 171.72C288.49 171.72 290.15 177.3 286.65 181.72C283.42 175.92 272.83 169.18 272.83 169.18Z" fill="#FF5050"/>
<path d="M245.72 185.88C245.39 187.43 244.29 188.51 243.28 188.29C242.27 188.07 241.72 186.64 242.05 185.08C242.38 183.52 243.48 182.45 244.5 182.67C245.52 182.89 246.06 184.33 245.72 185.88Z" fill="#263238"/>
<path d="M228.19 182.08C227.85 183.63 226.76 184.71 225.74 184.49C224.72 184.27 224.18 182.83 224.52 181.28C224.86 179.73 225.95 178.65 226.96 178.87C227.97 179.09 228.53 180.53 228.19 182.08Z" fill="#263238"/>
<path d="M233.6 184.06C233.6 184.06 228.13 192.24 223.31 195.72C225.5 198.88 230.42 198.72 230.42 198.72L233.6 184.06Z" fill="#FF5652"/>
<path d="M234 204C236.071 204.51 238.234 204.515 240.306 204.013C242.379 203.512 244.301 202.52 245.91 201.12C245.954 201.077 245.989 201.026 246.013 200.969C246.037 200.912 246.05 200.852 246.05 200.79C246.05 200.728 246.037 200.668 246.013 200.611C245.989 200.554 245.954 200.503 245.91 200.46C245.822 200.373 245.703 200.325 245.58 200.325C245.456 200.325 245.338 200.373 245.25 200.46C243.741 201.733 241.954 202.634 240.033 203.091C238.112 203.548 236.111 203.547 234.19 203.09C234.075 203.077 233.96 203.107 233.866 203.173C233.771 203.24 233.705 203.339 233.679 203.451C233.653 203.564 233.669 203.682 233.725 203.783C233.78 203.884 233.871 203.961 233.98 204H234Z" fill="#263238"/>
<path d="M257.23 178.59C257.434 178.64 257.649 178.619 257.84 178.53C258.065 178.426 258.239 178.237 258.325 178.005C258.411 177.772 258.402 177.516 258.3 177.29C257.708 175.932 256.798 174.735 255.648 173.801C254.498 172.867 253.141 172.222 251.69 171.92C251.445 171.884 251.195 171.947 250.996 172.095C250.798 172.244 250.666 172.465 250.63 172.71C250.594 172.955 250.657 173.205 250.805 173.404C250.954 173.602 251.175 173.734 251.42 173.77C252.564 174.024 253.631 174.548 254.532 175.297C255.433 176.047 256.142 177.001 256.6 178.08C256.664 178.204 256.752 178.314 256.861 178.402C256.97 178.49 257.095 178.554 257.23 178.59Z" fill="#263238"/>
<path d="M221.43 169.12C221.558 169.249 221.721 169.337 221.899 169.375C222.076 169.412 222.261 169.396 222.43 169.33C223.513 168.888 224.686 168.708 225.852 168.805C227.018 168.902 228.145 169.274 229.14 169.89C229.339 170.037 229.589 170.1 229.834 170.065C230.079 170.029 230.301 169.898 230.45 169.7C230.582 169.495 230.635 169.248 230.598 169.007C230.561 168.766 230.437 168.546 230.25 168.39C229.006 167.586 227.588 167.093 226.114 166.952C224.64 166.811 223.153 167.026 221.78 167.58C221.549 167.668 221.362 167.843 221.259 168.067C221.156 168.292 221.146 168.548 221.23 168.78C221.273 168.905 221.341 169.021 221.43 169.12V169.12Z" fill="#263238"/>
<path d="M298.22 264.47L300.22 266.31L302.06 268.07C303.28 269.24 304.45 270.44 305.63 271.64C307.99 274.03 310.27 276.48 312.53 278.96C317.05 283.96 321.35 289.13 325.53 294.55C329.776 300.095 333.667 305.903 337.18 311.94C339.012 315.137 340.68 318.425 342.18 321.79C343.838 325.446 345.16 329.245 346.13 333.14C346.671 335.324 347.059 337.542 347.29 339.78C347.41 340.95 347.48 342.17 347.49 343.43C347.521 345.041 347.404 346.651 347.14 348.24C346.562 351.573 345.313 354.754 343.47 357.59C341.938 359.911 340.086 362.005 337.97 363.81C334.618 366.615 330.884 368.928 326.88 370.68C323.451 372.17 319.922 373.42 316.32 374.42C312.88 375.42 309.45 376.11 306.06 376.74C302.67 377.37 299.3 377.82 295.94 378.18C292.58 378.54 289.23 378.77 285.89 378.93C284.21 379.01 282.54 379.04 280.89 379.06C279.24 379.08 277.58 379.06 275.76 379C273.973 378.971 272.257 378.299 270.926 377.107C269.594 375.915 268.737 374.283 268.511 372.511C268.285 370.738 268.705 368.943 269.695 367.456C270.685 365.968 272.178 364.887 273.9 364.41L274.29 364.3C286.03 361 298.29 357.43 308.58 352.68C311.024 351.583 313.387 350.313 315.65 348.88C317.428 347.854 319.034 346.554 320.41 345.03C320.87 344.48 321.07 344.03 321.03 343.9C320.99 343.77 320.82 343.96 320.68 344.32C320.68 344.41 320.63 344.49 320.6 344.57C320.57 344.65 320.6 344.48 320.54 344.34C320.54 344 320.44 343.63 320.35 343.21C320.147 342.28 319.893 341.362 319.59 340.46C318.776 338.212 317.807 336.024 316.69 333.91C315.5 331.61 314.08 329.26 312.55 326.91C309.329 322.065 305.858 317.392 302.15 312.91C298.41 308.27 294.38 303.74 290.29 299.24C288.24 297 286.14 294.79 284.05 292.58L280.89 289.31L279.32 287.7L277.83 286.2L277.52 285.89C274.762 283.12 273.202 279.379 273.176 275.47C273.15 271.562 274.659 267.8 277.379 264.993C280.099 262.187 283.812 260.56 287.72 260.464C291.627 260.368 295.415 261.81 298.27 264.48L298.22 264.47Z" fill="#FF8B7B"/>
<path d="M278.27 254.87C286.42 255.5 298.42 259.58 309.08 272.87C308 280.54 299.5 300.37 291.33 315.21C268.92 295.08 259 270.23 278.27 254.87Z" fill="#263238"/>
<path d="M279.54 364.37L261.22 353.79L261.65 378.79C261.65 378.79 276.51 383.26 281.52 377.43L279.54 364.37Z" fill="#FF8B7B"/>
<path d="M243.89 364.45L244.34 371.45C244.461 373.396 245.314 375.224 246.728 376.567C248.141 377.91 250.01 378.669 251.96 378.69L261.65 378.83L261.22 353.83L249.87 356.46C248.09 356.87 246.512 357.898 245.418 359.361C244.323 360.823 243.782 362.626 243.89 364.45Z" fill="#FF8B7B"/>
<path d="M281.56 204C279.231 208.339 275.274 211.576 270.56 213C264.31 214.82 261.11 209.25 262.78 203.31C264.29 197.97 269.36 190.58 275.66 191.31C281.96 192.04 284.37 198.7 281.56 204Z" fill="#FF8B7B"/>
<path d="M174.12 231C174.546 230.202 175.126 229.497 175.825 228.923C176.524 228.35 177.33 227.92 178.195 227.658C179.061 227.396 179.97 227.307 180.87 227.397C181.77 227.486 182.643 227.753 183.44 228.18C183.851 227.356 184.423 226.623 185.123 226.024C185.822 225.425 186.635 224.972 187.512 224.692C188.389 224.412 189.314 224.311 190.231 224.395C191.148 224.479 192.039 224.745 192.851 225.179C193.663 225.613 194.38 226.205 194.96 226.921C195.539 227.637 195.969 228.462 196.225 229.346C196.48 230.231 196.556 231.158 196.446 232.072C196.337 232.987 196.046 233.87 195.59 234.67L189.09 246.82L177 240.3C175.386 239.448 174.176 237.989 173.636 236.246C173.096 234.502 173.27 232.615 174.12 231V231Z" fill="#FF5050"/>
<path opacity="0.5" d="M310.32 193.31C309.734 193.153 309.122 193.113 308.52 193.192C307.918 193.271 307.338 193.468 306.812 193.772C306.287 194.076 305.826 194.48 305.457 194.962C305.087 195.444 304.817 195.993 304.66 196.58C303.495 196.323 302.275 196.526 301.256 197.146C300.236 197.767 299.496 198.757 299.189 199.91C298.882 201.063 299.032 202.291 299.608 203.336C300.184 204.381 301.141 205.164 302.28 205.52L311.21 207.9L313.6 199C313.762 198.411 313.805 197.796 313.727 197.19C313.649 196.584 313.452 196 313.147 195.471C312.842 194.942 312.435 194.478 311.95 194.107C311.465 193.736 310.911 193.465 310.32 193.31V193.31Z" fill="#FF5050"/>
<path opacity="0.2" d="M192.93 171.47C193.854 171.037 194.913 170.988 195.873 171.335C196.833 171.682 197.616 172.396 198.05 173.32C198.51 173.105 199.007 172.983 199.514 172.961C200.021 172.938 200.527 173.016 201.004 173.189C201.481 173.362 201.919 173.628 202.293 173.97C202.667 174.313 202.97 174.725 203.185 175.185C203.4 175.645 203.522 176.142 203.544 176.649C203.567 177.156 203.489 177.662 203.316 178.139C203.143 178.616 202.877 179.054 202.535 179.428C202.192 179.802 201.78 180.105 201.32 180.32L194.32 183.6L191.04 176.6C190.826 176.139 190.706 175.641 190.685 175.133C190.665 174.626 190.745 174.119 190.92 173.643C191.096 173.166 191.364 172.729 191.709 172.356C192.053 171.983 192.469 171.682 192.93 171.47V171.47Z" fill="#FF5050"/>
<path d="M308.7 149.54C308.55 149.212 308.337 148.917 308.073 148.671C307.809 148.426 307.499 148.235 307.16 148.109C306.822 147.984 306.463 147.926 306.102 147.94C305.742 147.954 305.388 148.039 305.06 148.19C304.755 147.527 304.199 147.012 303.515 146.759C302.83 146.506 302.073 146.535 301.41 146.84C300.747 147.145 300.232 147.701 299.979 148.385C299.726 149.07 299.755 149.827 300.06 150.49L302.35 155.49L307.35 153.2C307.68 153.049 307.976 152.835 308.223 152.569C308.469 152.303 308.661 151.991 308.786 151.651C308.912 151.311 308.969 150.949 308.954 150.587C308.939 150.225 308.853 149.869 308.7 149.54Z" fill="#FF5050"/>
<path d="M316.06 253.37C315.91 253.042 315.697 252.747 315.433 252.501C315.169 252.256 314.859 252.065 314.52 251.939C314.182 251.814 313.823 251.756 313.462 251.77C313.102 251.784 312.748 251.869 312.42 252.02C312.269 251.692 312.055 251.396 311.79 251.151C311.524 250.905 311.214 250.714 310.875 250.589C310.536 250.464 310.175 250.406 309.814 250.42C309.453 250.434 309.098 250.519 308.77 250.67C308.442 250.821 308.146 251.035 307.901 251.3C307.655 251.566 307.464 251.876 307.339 252.215C307.214 252.554 307.156 252.915 307.17 253.276C307.184 253.637 307.269 253.992 307.42 254.32L309.71 259.32L314.71 257.03C315.04 256.879 315.336 256.665 315.583 256.399C315.829 256.133 316.021 255.821 316.146 255.481C316.272 255.141 316.329 254.779 316.314 254.417C316.299 254.055 316.213 253.699 316.06 253.37Z" fill="#FF5050"/>
</svg>
