<svg width="500" height="500" viewBox="0 0 500 500" fill="none" xmlns="http://www.w3.org/2000/svg">
<path d="M422.92 170C375.69 101.32 260.74 67.79 200.23 136.24C186.79 151.45 181.41 172.4 163.44 184.18C148.71 193.84 122.92 186.79 99.32 195.55C54.13 212.34 26.97 278.2 78.62 310.55C115.73 333.76 170.91 311.09 209.29 308.8C255.7 306.03 287.89 332.34 332.56 334.8C420.18 339.45 471.79 241 422.92 170Z" fill="#FF5050"/>
<path opacity="0.9" d="M422.92 170C375.69 101.32 260.74 67.79 200.23 136.24C186.79 151.45 181.41 172.4 163.44 184.18C148.71 193.84 122.92 186.79 99.32 195.55C54.13 212.34 26.97 278.2 78.62 310.55C115.73 333.76 170.91 311.09 209.29 308.8C255.7 306.03 287.89 332.34 332.56 334.8C420.18 339.45 471.79 241 422.92 170Z" fill="white"/>
<path d="M250 427.56C357.082 427.56 443.89 422.492 443.89 416.24C443.89 409.988 357.082 404.92 250 404.92C142.918 404.92 56.11 409.988 56.11 416.24C56.11 422.492 142.918 427.56 250 427.56Z" fill="#F5F5F5"/>
<path d="M416.61 391.61H188.89L188.06 293.24C188.025 290.94 188.452 288.656 189.317 286.524C190.182 284.392 191.466 282.456 193.094 280.83C194.722 279.204 196.659 277.922 198.792 277.059C200.925 276.197 203.21 275.772 205.51 275.81H412.57C415.028 275.766 417.466 276.259 419.714 277.255C421.962 278.251 423.965 279.725 425.584 281.576C427.203 283.426 428.398 285.607 429.087 287.967C429.775 290.328 429.94 292.809 429.57 295.24L416.61 391.61Z" fill="#FF5050"/>
<path d="M427.49 279.94C425.619 277.835 423.32 276.155 420.747 275.011C418.174 273.868 415.386 273.288 412.57 273.31H399V272.31H412.57C415.53 272.29 418.46 272.905 421.163 274.112C423.866 275.32 426.279 277.092 428.24 279.31L427.49 279.94Z" fill="#FF5050"/>
<path d="M393.34 272.31H386.46V273.31H393.34V272.31Z" fill="#FF5050"/>
<path opacity="0.1" d="M416.61 391.61H188.89L188.06 293.24C188.025 290.94 188.452 288.656 189.317 286.524C190.182 284.392 191.466 282.456 193.094 280.83C194.722 279.204 196.659 277.922 198.792 277.059C200.925 276.197 203.21 275.772 205.51 275.81H412.57C415.028 275.766 417.466 276.259 419.714 277.255C421.962 278.251 423.965 279.725 425.584 281.576C427.203 283.426 428.398 285.607 429.087 287.967C429.775 290.328 429.94 292.809 429.57 295.24L416.61 391.61Z" fill="white"/>
<path d="M411 288.65L400.28 373.86L416.65 391.61L429.65 295.24C430.182 291.441 429.44 287.573 427.54 284.24C423.37 277.09 412 280.2 411 288.65Z" fill="#FF5050"/>
<path d="M222.3 398.61L205.73 330.2C205.005 327.373 203.361 324.868 201.057 323.078C198.752 321.287 195.918 320.314 193 320.31H170.31L176.01 398.61H222.3Z" fill="#FF5050"/>
<path opacity="0.2" d="M222.3 398.61L205.73 330.2C205.005 327.373 203.361 324.868 201.057 323.078C198.752 321.287 195.918 320.314 193 320.31H170.31L176.01 398.61H222.3Z" fill="black"/>
<path d="M203.82 398.61L186.64 330.2C185.887 327.375 184.226 324.877 181.913 323.09C179.6 321.302 176.763 320.326 173.84 320.31H158.44C157.513 320.282 156.591 320.451 155.735 320.806C154.878 321.161 154.106 321.693 153.47 322.368C152.834 323.042 152.349 323.844 152.045 324.72C151.742 325.596 151.628 326.527 151.71 327.45L157.53 398.61H203.82Z" fill="#FF5050"/>
<path d="M215.88 287.45C215.514 287.848 215.031 288.118 214.5 288.22C213.624 288.399 212.798 288.768 212.08 289.3C211.747 289.534 211.485 289.857 211.325 290.231C211.164 290.605 211.111 291.017 211.17 291.42C211.38 292.31 212.32 293.05 212.24 293.95C212.16 294.85 211.31 295.32 210.56 295.82C210.009 296.159 209.514 296.581 209.09 297.07C208.889 297.295 208.74 297.561 208.654 297.849C208.567 298.138 208.545 298.442 208.59 298.74C208.697 299.177 208.93 299.573 209.26 299.88C209.873 300.44 210.613 300.843 211.415 301.056C212.218 301.268 213.06 301.283 213.87 301.1C214.645 300.945 215.368 300.597 215.973 300.088C216.578 299.58 217.044 298.927 217.33 298.19C217.369 298.018 217.44 297.855 217.54 297.71C217.808 297.442 218.162 297.275 218.54 297.24C220.397 296.97 222.283 296.97 224.14 297.24C224.732 297.34 225.338 297.34 225.93 297.24C226.567 297.046 227.133 296.671 227.56 296.16C227.867 295.897 228.096 295.554 228.219 295.169C228.343 294.784 228.357 294.373 228.26 293.98C227.92 293.11 226.75 292.71 225.68 292.62C224.96 292.56 224.09 292.55 223.68 292.03C223.27 291.51 223.68 290.67 224.28 290.21C224.947 289.844 225.56 289.386 226.1 288.85C226.35 288.501 226.496 288.088 226.52 287.66C226.573 287.262 226.484 286.859 226.27 286.52C225.787 286.042 225.156 285.742 224.48 285.67C223.889 285.495 223.264 285.467 222.66 285.59C222.232 285.759 221.829 285.985 221.46 286.26C221.075 286.537 220.6 286.658 220.13 286.6C219.41 286.43 219.13 285.69 218.84 285.13C218.427 284.476 217.813 283.975 217.09 283.7C216.54 283.48 215.38 283.02 214.85 283.47C214.751 283.571 214.683 283.698 214.653 283.836C214.623 283.973 214.632 284.117 214.68 284.25C214.931 284.822 215.268 285.351 215.68 285.82C215.888 286.032 216.02 286.306 216.056 286.601C216.093 286.896 216.031 287.194 215.88 287.45Z" fill="#FF5050"/>
<path opacity="0.5" d="M220.14 304.26C220.239 304.22 220.33 304.161 220.405 304.085C220.481 304.01 220.54 303.919 220.58 303.82C220.591 303.724 220.582 303.626 220.555 303.534C220.528 303.441 220.482 303.355 220.42 303.28C220.18 302.997 219.888 302.762 219.56 302.59C218.981 302.212 218.301 302.017 217.61 302.03C217.32 302.047 217.039 302.136 216.791 302.288C216.544 302.439 216.337 302.65 216.19 302.9C215.82 303.61 216.31 303.97 216.86 304.34C217.367 304.613 217.935 304.749 218.511 304.735C219.086 304.721 219.647 304.557 220.14 304.26V304.26Z" fill="#FF5050"/>
<path opacity="0.5" d="M212.76 307.54C212.646 307.611 212.553 307.711 212.49 307.83C212.456 307.941 212.456 308.059 212.49 308.17C212.527 308.333 212.61 308.483 212.73 308.6C212.809 308.712 212.917 308.8 213.042 308.856C213.166 308.913 213.304 308.935 213.44 308.92C213.601 308.884 213.752 308.814 213.885 308.716C214.017 308.618 214.128 308.493 214.21 308.35C214.322 308.225 214.385 308.063 214.385 307.895C214.385 307.727 214.322 307.565 214.21 307.44C213.88 307 213.27 307.2 212.76 307.54Z" fill="#FF5050"/>
<path opacity="0.5" d="M393 296.17C393.445 296.13 393.876 295.995 394.266 295.777C394.655 295.558 394.994 295.259 395.26 294.9C395.431 294.535 395.519 294.138 395.519 293.735C395.519 293.332 395.431 292.935 395.26 292.57C394.651 291.132 393.753 289.835 392.62 288.76C390.725 286.577 388.221 285.01 385.43 284.26C384.238 283.984 382.996 284.008 381.816 284.331C380.636 284.654 379.555 285.265 378.67 286.11C376.37 288.53 377.95 290.56 379.67 292.69C382.72 296.4 388.43 297.1 393 296.17Z" fill="#FF5050"/>
<path opacity="0.5" d="M362.64 297.81C362.1 297.956 361.612 298.251 361.23 298.66C360.924 299.035 360.742 299.497 360.71 299.98C360.671 300.673 360.819 301.364 361.14 301.98C361.338 302.523 361.674 303.005 362.113 303.38C362.553 303.755 363.083 304.01 363.65 304.12C364.341 304.151 365.032 304.041 365.678 303.795C366.325 303.549 366.914 303.173 367.41 302.69C369.1 301.19 368.78 300.13 368.41 299.02C367.73 297.1 365.08 297 362.64 297.81Z" fill="#FF5050"/>
<path d="M391.67 398.61H157.53L154.3 359.18H394.23L391.67 398.61Z" fill="#FF5050"/>
<path d="M422.69 398.61H391.69L385.43 320.31H425.74C426.7 320.282 427.654 320.465 428.536 320.846C429.417 321.226 430.205 321.796 430.842 322.514C431.48 323.231 431.953 324.08 432.227 325.001C432.502 325.921 432.571 326.89 432.43 327.84L422.69 398.61Z" fill="#FF5050"/>
<path opacity="0.2" d="M422.69 398.61H391.69L385.43 320.31H425.74C426.7 320.282 427.654 320.465 428.536 320.846C429.417 321.226 430.205 321.796 430.842 322.514C431.48 323.231 431.953 324.08 432.227 325.001C432.502 325.921 432.571 326.89 432.43 327.84L422.69 398.61Z" fill="black"/>
<path d="M345.38 398.61L361.38 330.2C362.075 327.378 363.696 324.87 365.984 323.078C368.271 321.285 371.094 320.311 374 320.31H389.39C390.322 320.286 391.248 320.456 392.11 320.81C392.972 321.164 393.75 321.694 394.396 322.366C395.042 323.038 395.54 323.837 395.859 324.712C396.178 325.588 396.312 326.52 396.25 327.45L391.63 398.61H345.38Z" fill="#FF5050"/>
<path d="M351.79 371.24H333.44L334.4 344.9H357.96L351.79 371.24Z" fill="#FF5050"/>
<path opacity="0.2" d="M351.79 371.24H333.44L334.4 344.9H357.96L351.79 371.24Z" fill="black"/>
<path d="M333.45 371.24H186C184.42 371.248 182.894 370.668 181.718 369.613C180.542 368.557 179.801 367.102 179.64 365.53L178.64 350.73C178.589 349.968 178.699 349.204 178.961 348.488C179.223 347.771 179.633 347.117 180.163 346.567C180.693 346.018 181.333 345.586 182.04 345.299C182.747 345.012 183.507 344.876 184.27 344.9H334.4C335.17 344.881 335.936 345.018 336.651 345.305C337.366 345.591 338.015 346.02 338.559 346.566C339.102 347.111 339.529 347.762 339.813 348.478C340.097 349.194 340.232 349.96 340.21 350.73L339.63 365.53C339.523 367.091 338.823 368.551 337.674 369.613C336.525 370.674 335.014 371.256 333.45 371.24V371.24Z" fill="#FF5050"/>
<path opacity="0.2" d="M333.45 371.24H186C184.42 371.248 182.894 370.668 181.718 369.613C180.542 368.557 179.801 367.102 179.64 365.53L178.64 350.73C178.589 349.968 178.699 349.204 178.961 348.488C179.223 347.771 179.633 347.117 180.163 346.567C180.693 346.018 181.333 345.586 182.04 345.299C182.747 345.012 183.507 344.876 184.27 344.9H334.4C335.17 344.881 335.936 345.018 336.651 345.305C337.366 345.591 338.015 346.02 338.559 346.566C339.102 347.111 339.529 347.762 339.813 348.478C340.097 349.194 340.232 349.96 340.21 350.73L339.63 365.53C339.523 367.091 338.823 368.551 337.674 369.613C336.525 370.674 335.014 371.256 333.45 371.24V371.24Z" fill="white"/>
<path d="M383.11 413.32H387.33V398.61H380.21L383.11 413.32Z" fill="#263238"/>
<path d="M414.13 413.32H418.35V398.61H411.24L414.13 413.32Z" fill="#263238"/>
<path d="M197.11 413.32H192.89V398.61H200L197.11 413.32Z" fill="#263238"/>
<path d="M166.09 413.32H161.87V398.61H168.98L166.09 413.32Z" fill="#263238"/>
<path d="M325.15 249.78C323.78 253.13 322.31 256.5 320.86 259.85C319.41 263.2 317.92 266.54 316.42 269.85L312 279.81C310.57 283.11 309.07 286.41 307.79 289.57L307.21 291.01C306.64 292.415 305.636 293.602 304.345 294.397C303.053 295.192 301.542 295.554 300.03 295.43C298.877 295.316 297.719 295.266 296.56 295.28C295.441 295.299 294.325 295.399 293.22 295.58C292.099 295.755 290.998 296.036 289.93 296.42C289.382 296.611 288.844 296.831 288.32 297.08C288.05 297.2 287.79 297.32 287.54 297.45L287.17 297.62L287.01 297.68H286.94C286.94 297.68 286.89 297.68 286.94 297.59C286.317 298.658 285.305 299.443 284.115 299.778C282.925 300.114 281.652 299.975 280.563 299.39C279.473 298.806 278.654 297.821 278.277 296.644C277.899 295.467 277.994 294.189 278.54 293.08C278.596 292.963 278.646 292.843 278.69 292.72L278.78 292.47L278.95 292.02C279.07 291.74 279.18 291.46 279.3 291.2C279.55 290.67 279.81 290.2 280.09 289.68C280.65 288.734 281.289 287.838 282 287C283.445 285.287 285.129 283.792 287 282.56C288.842 281.346 290.827 280.365 292.91 279.64C294.932 278.921 297.023 278.415 299.15 278.13L291.33 284C292.45 280.19 293.64 276.63 294.91 273.07L296.83 267.78L298.83 262.56C300.16 259.08 301.59 255.65 303.02 252.23C304.45 248.81 305.95 245.42 307.56 242.03C308.62 239.747 310.533 237.971 312.888 237.082C315.242 236.193 317.852 236.262 320.156 237.275C322.46 238.288 324.276 240.163 325.213 242.499C326.15 244.835 326.135 247.445 325.17 249.77L325.15 249.78Z" fill="#FFC3BD"/>
<path d="M310.19 237.83C317.32 228.49 338.01 228.02 354.87 231.67C358.51 232.44 361.879 234.169 364.627 236.678C367.375 239.187 369.403 242.384 370.5 245.94C378.56 272.67 368.71 318.2 351.62 330.94C331.72 345.78 300.33 336.54 290.68 323.11C283.8 313.53 288.44 293.04 297.35 279.67C297.65 265.08 303.28 246.88 310.19 237.83Z" fill="#FF5050"/>
<path opacity="0.4" d="M310.19 237.83C317.32 228.49 338.01 228.02 354.87 231.67C358.51 232.44 361.879 234.169 364.627 236.678C367.375 239.187 369.403 242.384 370.5 245.94C378.56 272.67 368.71 318.2 351.62 330.94C331.72 345.78 300.33 336.54 290.68 323.11C283.8 313.53 288.44 293.04 297.35 279.67C297.65 265.08 303.28 246.88 310.19 237.83Z" fill="black"/>
<path d="M345.25 230.72C338.77 226.29 335.62 214.62 334.46 207.52L321.51 227.52C325.56 232.15 326.87 232.23 320.02 238.52C314.42 243.65 336.66 243.34 345.34 237.24C345.855 236.863 346.272 236.368 346.557 235.797C346.842 235.226 346.986 234.595 346.977 233.957C346.969 233.319 346.807 232.692 346.507 232.129C346.206 231.566 345.775 231.083 345.25 230.72V230.72Z" fill="#FFC3BD"/>
<path opacity="0.2" d="M330.9 221.42C331.011 219.362 330.403 217.329 329.18 215.67L321.51 227.51C322.605 228.62 323.608 229.818 324.51 231.09C327.51 230.62 330.49 226.22 330.9 221.42Z" fill="black"/>
<path d="M301.58 195.29C300.71 204.01 302.71 211.21 303.4 219.07C310.02 216.55 307.68 192.94 307.68 192.94L301.58 195.29Z" fill="#263238"/>
<path d="M333.59 199.4C334.59 210.34 335.8 216.69 331.21 223.11C324.3 232.77 310.15 229.92 305.86 219.51C301.99 210.15 300.94 193.84 310.86 187.86C313.042 186.535 315.525 185.789 318.076 185.692C320.626 185.596 323.159 186.151 325.435 187.307C327.711 188.462 329.655 190.179 331.082 192.295C332.509 194.412 333.372 196.857 333.59 199.4V199.4Z" fill="#FFC3BD"/>
<path d="M325.28 189.8C319.28 194.4 308.95 198.38 308.95 198.38C308.95 198.38 310.81 195.26 310.95 193.59C303.11 195.06 299.68 199.71 299.68 199.71C299.68 199.71 296.77 193.07 304.38 184.71C309.38 179.17 326.09 174.28 330.3 183.39C336.99 180.23 343.97 188.75 340.41 195.39C336.85 202.03 329.33 202.9 328.94 218.3C324.94 217.91 322.38 211.3 322.38 211.3C325.94 209.73 328.18 201.12 327.76 197.98C326.26 198.31 323.19 192.35 325.28 189.8Z" fill="#263238"/>
<path d="M327.63 183.67C329.7 180.92 329.33 178 328.5 175.25C334 178.78 333.19 185.23 327.63 183.67Z" fill="#263238"/>
<path d="M340.46 187.72L334.59 203.58C333.82 204.1 341.34 209.17 343.88 197.89C339.23 197.86 343.41 191.89 340.46 187.72Z" fill="#263238"/>
<path d="M328.89 233.86C329.894 231.074 330.725 228.228 331.38 225.34C332.607 223.711 333.324 221.756 333.44 219.72C333.89 214.72 329.8 209.46 330.12 205.15L326.24 212.44C325.93 212.221 325.594 212.039 325.24 211.9C320.54 209.96 313.32 212.96 310.53 214.96C295.87 213.81 308.61 223.77 305.33 238.14C302.52 250.48 316.11 249.06 317.83 268.95C319.853 266.741 321.73 264.402 323.45 261.95C330.85 256.07 329.89 252.32 328.68 247.66C328.55 247.13 328.41 246.59 328.28 246.04C328.13 244.74 327.89 243.48 327.65 242.2C327.47 239.364 327.893 236.521 328.89 233.86ZM328.42 233.7C327.758 235.54 327.348 237.46 327.2 239.41C326.82 237.153 326.756 234.854 327.01 232.58C327.64 229.46 329.23 227.96 330.68 226.22C330.053 228.75 329.299 231.246 328.42 233.7V233.7ZM324.42 260.51C327.5 255.64 328.42 251.93 328.42 248.61C329.45 252.57 329.84 255.78 324.43 260.51H324.42Z" fill="#263238"/>
<path d="M316.34 203.59C315.77 203.68 315.41 204.47 315.55 205.35L317.64 205.02C317.5 204.14 316.92 203.5 316.34 203.59Z" fill="#263238"/>
<path d="M306.38 205.16C305.8 205.25 305.44 206.04 305.58 206.92L307.67 206.59C307.53 205.71 307 205.07 306.38 205.16Z" fill="#263238"/>
<path d="M310.91 206.53C310.91 206.53 309.71 211.94 307.91 214.74C309.7 215.95 312.24 214.87 312.24 214.87L310.91 206.53Z" fill="#ED847E"/>
<path d="M320.49 198.29C320.437 198.377 320.36 198.447 320.267 198.49C320.174 198.533 320.071 198.547 319.97 198.53C319.321 198.419 318.655 198.463 318.026 198.657C317.397 198.852 316.823 199.192 316.35 199.65C316.304 199.701 316.248 199.743 316.186 199.773C316.124 199.802 316.057 199.82 315.988 199.823C315.92 199.827 315.851 199.817 315.786 199.794C315.721 199.771 315.661 199.736 315.61 199.69C315.559 199.644 315.517 199.588 315.487 199.526C315.458 199.464 315.44 199.397 315.437 199.328C315.433 199.26 315.443 199.191 315.466 199.126C315.489 199.061 315.524 199.001 315.57 198.95C316.157 198.361 316.876 197.922 317.668 197.668C318.459 197.414 319.3 197.353 320.12 197.49C320.189 197.5 320.255 197.523 320.315 197.559C320.375 197.594 320.428 197.641 320.469 197.697C320.511 197.752 320.542 197.816 320.559 197.883C320.576 197.951 320.58 198.021 320.57 198.09C320.558 198.162 320.531 198.23 320.49 198.29Z" fill="#263238"/>
<path d="M301.84 201.21C301.727 201.162 301.638 201.073 301.59 200.96C301.562 200.898 301.546 200.83 301.543 200.762C301.541 200.693 301.552 200.625 301.577 200.561C301.601 200.497 301.637 200.438 301.684 200.388C301.731 200.338 301.787 200.298 301.85 200.27C302.597 199.903 303.421 199.721 304.253 199.741C305.085 199.76 305.901 199.979 306.63 200.38C306.689 200.416 306.74 200.463 306.78 200.519C306.821 200.574 306.85 200.638 306.865 200.704C306.881 200.771 306.884 200.841 306.872 200.909C306.861 200.977 306.837 201.042 306.8 201.1C306.724 201.217 306.605 201.301 306.469 201.332C306.333 201.364 306.19 201.342 306.07 201.27C305.489 200.958 304.841 200.791 304.181 200.782C303.521 200.773 302.869 200.924 302.28 201.22C302.211 201.253 302.135 201.269 302.059 201.267C301.982 201.265 301.907 201.246 301.84 201.21V201.21Z" fill="#263238"/>
<path d="M339.35 205.51C338.786 208.181 337.232 210.539 335 212.11C332.07 214.11 329.67 211.64 329.7 208.19C329.7 205.07 331.28 200.28 334.59 199.67C337.9 199.06 340 202.19 339.35 205.51Z" fill="#FFC3BD"/>
<path opacity="0.2" d="M308.16 206.42C307.92 207.148 307.502 207.804 306.943 208.328C306.383 208.852 305.702 209.228 304.96 209.42C309.51 210.44 308.16 206.42 308.16 206.42Z" fill="black"/>
<path opacity="0.2" d="M314.26 205.49C314.738 206.076 315.353 206.534 316.051 206.826C316.749 207.117 317.507 207.232 318.26 207.16C314.79 209.22 314.26 205.49 314.26 205.49Z" fill="black"/>
<path d="M288.55 301.11C294.85 298.94 304.55 298.76 322.02 301.03C330.12 302.08 328.26 314.22 327.4 318.44C325.14 329.44 317.29 336.51 300.78 339.27C280.42 342.68 266.33 343.27 252.09 345.54C247.54 363.95 227.9 387.62 220.65 389.84C213.4 392.06 204.31 387.04 208.35 375.21C212.39 363.38 217.65 335.28 225.81 328.33C240.05 316.19 273.4 306.32 288.55 301.11Z" fill="white"/>
<path opacity="0.2" d="M255.82 345C264.6 343.75 273.53 343 284.11 341.71C284.754 333.457 285.886 325.249 287.5 317.13C271.6 320.71 260.48 329.65 255.82 345Z" fill="black"/>
<path d="M208.54 415.68C209.37 413.26 207 409.68 209.84 404.8C212.68 399.92 223.84 387.7 222.48 383.88C221.12 380.06 213.32 376.5 210.79 378.7C208.26 380.9 205.25 393.05 201.08 399.65C196.91 406.25 188.08 406.57 179.43 405.31C178.21 405.14 178.43 408.65 181.17 409.6C187.88 411.98 194.05 412.13 197.66 413.91C200.75 415.43 200.9 416.76 204.41 418.06C206.58 418.86 207.71 418.12 208.54 415.68Z" fill="#FFC3BD"/>
<path d="M319.7 301C344.19 300.68 356.03 308 358.13 316.38C361.13 328.46 359.48 338.73 344.71 344C326.59 350.45 306.71 345.87 293.06 348.18C292.25 366.84 277.6 390.84 270.89 393.09C264.18 395.34 254.21 390.27 255.82 378.27C257.43 366.27 256.24 343.64 266.23 330.94C279.08 314.64 305.05 301.22 319.7 301Z" fill="white"/>
<path opacity="0.08" d="M345 327.81C344.35 327.995 343.669 328.043 343 327.95C341.94 327.776 340.86 327.776 339.8 327.95C338.502 328.169 337.267 328.667 336.18 329.41C335.07 330.23 334.69 331.2 333.36 331.93C332.173 332.504 330.886 332.843 329.57 332.93C328.634 333.024 327.708 333.194 326.8 333.44C325.834 333.694 324.917 334.11 324.09 334.67C323.629 334.989 323.241 335.401 322.95 335.88C322.15 337.21 322.77 338.3 324.41 338.59C326.644 338.779 328.888 338.368 330.91 337.4C331.176 337.274 331.45 337.167 331.73 337.08C332.179 336.961 332.651 336.961 333.1 337.08C334.549 337.415 335.891 338.109 337 339.1C337.351 339.438 337.798 339.658 338.28 339.73C339.175 339.781 340.071 339.676 340.93 339.42C342.211 339.149 343.421 338.61 344.48 337.84C345.48 336.98 345.22 336.21 344.6 335.75C344.18 335.44 343.6 335.11 344.06 334.52C344.897 333.778 345.947 333.32 347.06 333.21C348.127 333.125 349.186 332.964 350.23 332.73C350.926 332.518 351.597 332.229 352.23 331.87C352.763 331.604 353.246 331.249 353.66 330.82C353.834 330.635 353.931 330.39 353.931 330.135C353.931 329.88 353.834 329.635 353.66 329.45C353.543 329.242 353.377 329.066 353.177 328.937C352.977 328.808 352.748 328.73 352.51 328.71C351.917 328.702 351.325 328.746 350.74 328.84C350.13 328.9 349.52 328.89 349.35 328.63C349.18 328.37 349.96 327.52 350.53 326.92C350.794 326.694 351.004 326.411 351.142 326.092C351.281 325.773 351.345 325.427 351.33 325.08C351.26 324.69 351.1 323.88 350.09 324.08C349.65 324.187 349.24 324.392 348.89 324.68C348.319 325.179 347.812 325.747 347.38 326.37C346.751 327.08 345.921 327.582 345 327.81V327.81Z" fill="#263238"/>
<path d="M267.83 419C268 416.44 264.75 413.57 266.22 408.15C267.69 402.73 275.22 387.97 272.91 384.65C270.6 381.33 262.15 379.94 260.28 382.72C258.41 385.5 258.71 398.02 256.42 405.49C254.13 412.96 245.73 415.57 237.02 416.65C235.8 416.8 237.02 420.11 239.82 420.32C246.92 420.86 252.91 419.38 256.82 420.15C260.21 420.81 260.7 422.04 264.43 422.37C266.77 422.57 267.67 421.55 267.83 419Z" fill="#FFC3BD"/>
<path d="M317.05 298.22C314.66 292.12 308.05 291.71 304.1 289.09C303.42 288.65 301.67 289.92 302.21 291.28C302.61 292.311 303.217 293.249 303.995 294.035C304.772 294.821 305.703 295.439 306.73 295.85C306.67 297.85 307.49 303.92 313.27 304.15C315.57 302.22 317.05 298.22 317.05 298.22Z" fill="#FFC3BD"/>
<path d="M283.51 285.27L276.88 293L286.69 301.12C286.69 301.12 295.46 295.26 290.49 288.06L283.51 285.27Z" fill="#FFC3BD"/>
<path d="M291.37 291C287.96 285.4 281.43 286.13 277.04 284.25C276.29 283.93 274.79 285.48 275.56 286.73C276.129 287.679 276.888 288.499 277.79 289.139C278.692 289.78 279.717 290.226 280.8 290.45C281.09 292.45 282.94 298.26 288.68 297.5C290.61 295.19 291.37 291 291.37 291Z" fill="#FFC3BD"/>
<path d="M274.74 303.27L276.33 304.71C277.193 305.487 278.314 305.917 279.475 305.917C280.637 305.917 281.757 305.487 282.62 304.71L286.69 301.1L276.88 293L274 297.1C273.355 298.044 273.075 299.189 273.211 300.324C273.347 301.459 273.891 302.505 274.74 303.27V303.27Z" fill="#FFC3BD"/>
<path d="M309.64 302.88C308.672 298.949 307.053 295.207 304.85 291.81C302.85 288.74 300.19 287.81 294.1 287.45C293.412 287.376 292.717 287.452 292.062 287.675C291.407 287.898 290.809 288.261 290.31 288.74L284.83 288.39C282.98 287.07 280.41 286.56 276.18 286.28C269.88 285.87 270.12 294.5 270.12 294.5C270.12 294.5 267.52 296.57 275.82 297.11L280.26 297.4C282.62 299.61 286.73 303.34 287.73 303.4C289.16 303.49 292.11 303.68 291.73 301.7C291.463 300.463 291.099 299.249 290.64 298.07L293.23 298.24H293.75C296.44 298.42 296.5 296.93 296.5 296.93C296.5 296.93 304.23 304.44 305.66 304.54C307.09 304.64 310 304.86 309.64 302.88Z" fill="#263238"/>
<path d="M277.796 292.198L269.508 291.371C268.98 291.318 268.51 291.703 268.457 292.231L268.449 292.311C268.396 292.838 268.781 293.308 269.309 293.361L277.598 294.188C278.125 294.241 278.596 293.856 278.648 293.329L278.656 293.249C278.709 292.721 278.324 292.251 277.796 292.198Z" fill="#FF5050"/>
<path d="M298.476 293.684L290.187 292.857C289.66 292.804 289.189 293.189 289.137 293.717L289.129 293.796C289.076 294.324 289.461 294.794 289.989 294.847L298.278 295.674C298.805 295.727 299.276 295.342 299.328 294.814L299.336 294.735C299.389 294.207 299.004 293.737 298.476 293.684Z" fill="#FF5050"/>
<path d="M365.85 247.75C366.05 249.88 366.18 251.75 366.27 253.75C366.36 255.75 366.41 257.75 366.44 259.68C366.44 263.68 366.44 267.62 366.15 271.68C365.919 275.798 365.444 279.898 364.73 283.96C364.351 286.137 363.86 288.293 363.26 290.42C362.564 292.883 361.612 295.266 360.42 297.53L360.17 298C359.561 299.132 358.668 300.086 357.58 300.77C353.434 303.262 348.922 305.087 344.21 306.18C340.017 307.21 335.756 307.942 331.46 308.37C327.267 308.79 323.107 309.007 318.98 309.02C314.826 309.052 310.674 308.865 306.54 308.46C305.387 308.347 304.314 307.821 303.519 306.98C302.723 306.138 302.259 305.037 302.211 303.88C302.164 302.722 302.536 301.587 303.26 300.683C303.984 299.779 305.01 299.167 306.15 298.96H306.32C310.05 298.27 313.96 297.56 317.73 296.77C321.5 295.98 325.27 295.13 328.92 294.15C330.74 293.66 332.54 293.15 334.3 292.61C336.06 292.07 337.77 291.45 339.42 290.83C342.391 289.763 345.2 288.293 347.77 286.46L344.93 289.7C345.365 288.524 345.699 287.313 345.93 286.08C346.19 284.61 346.44 283.01 346.6 281.35C346.76 279.69 346.89 277.97 346.97 276.23C347.05 274.49 347.12 272.71 347.15 270.93C347.15 267.36 347.15 263.73 347.08 260.09L346.92 254.62L346.71 249.26V249C346.625 246.502 347.516 244.069 349.194 242.216C350.872 240.364 353.205 239.237 355.699 239.074C358.193 238.912 360.653 239.727 362.557 241.346C364.461 242.965 365.66 245.262 365.9 247.75H365.85Z" fill="#FFC3BD"/>
<path opacity="0.5" d="M324.89 279.55C324.675 279.712 324.496 279.918 324.367 280.154C324.238 280.39 324.16 280.651 324.14 280.92C324.173 281.16 324.257 281.391 324.386 281.596C324.516 281.801 324.687 281.977 324.89 282.11C325.664 282.646 326.538 283.02 327.46 283.21C329.125 283.72 330.905 283.72 332.57 283.21C333.266 282.968 333.892 282.559 334.392 282.019C334.893 281.478 335.253 280.823 335.44 280.11C335.85 278.11 334.39 277.6 332.82 277.11C330.05 276.17 326.91 277.63 324.89 279.55Z" fill="#FF5050"/>
<path opacity="0.5" d="M327 275.22C327.106 275.18 327.202 275.118 327.283 275.039C327.364 274.96 327.428 274.865 327.47 274.76C327.486 274.662 327.479 274.562 327.452 274.467C327.424 274.372 327.376 274.284 327.31 274.21C327.07 273.903 326.771 273.648 326.43 273.46C325.84 273.059 325.143 272.843 324.43 272.84C324.127 272.853 323.832 272.941 323.571 273.094C323.309 273.247 323.089 273.462 322.93 273.72C322.53 274.45 323.04 274.84 323.6 275.23C324.119 275.522 324.705 275.675 325.301 275.673C325.897 275.671 326.482 275.515 327 275.22Z" fill="#FF5050"/>
<path opacity="0.5" d="M319.23 278.48C319.113 278.55 319.016 278.65 318.95 278.77C318.912 278.884 318.912 279.006 318.95 279.12C318.981 279.292 319.061 279.452 319.18 279.58C319.263 279.697 319.374 279.791 319.504 279.853C319.634 279.914 319.777 279.941 319.92 279.93C320.087 279.893 320.245 279.823 320.385 279.723C320.524 279.624 320.641 279.497 320.73 279.35C320.797 279.285 320.849 279.207 320.885 279.121C320.922 279.035 320.94 278.943 320.94 278.85C320.94 278.757 320.922 278.665 320.885 278.579C320.849 278.493 320.797 278.415 320.73 278.35C320.41 278 319.77 278.13 319.23 278.48Z" fill="#FF5050"/>
<path opacity="0.5" d="M305.89 259.9C305.891 259.789 305.868 259.679 305.823 259.577C305.778 259.476 305.712 259.385 305.63 259.31C305.542 259.262 305.445 259.233 305.345 259.225C305.245 259.216 305.145 259.228 305.05 259.26C304.682 259.377 304.342 259.567 304.05 259.82C303.462 260.238 303.012 260.824 302.76 261.5C302.661 261.787 302.636 262.093 302.687 262.392C302.737 262.691 302.862 262.972 303.05 263.21C303.6 263.84 304.14 263.5 304.7 263.12C305.161 262.733 305.514 262.233 305.722 261.668C305.931 261.103 305.989 260.494 305.89 259.9Z" fill="#FF5050"/>
<path opacity="0.5" d="M308.07 259.5C308.094 259.638 308.157 259.766 308.25 259.87C308.336 259.952 308.443 260.007 308.56 260.03C308.732 260.055 308.908 260.034 309.07 259.97C309.209 259.934 309.337 259.863 309.44 259.763C309.544 259.663 309.619 259.538 309.66 259.4C309.689 259.224 309.68 259.045 309.635 258.873C309.591 258.7 309.51 258.539 309.4 258.4C309.319 258.245 309.183 258.125 309.018 258.064C308.854 258.004 308.673 258.005 308.51 258.07C308 258.22 307.94 258.87 308.07 259.5Z" fill="#FF5050"/>
<path d="M314.41 308.05L304.34 309.63L302.57 297C302.57 297 310.85 294 312.95 298.18L314.41 308.05Z" fill="#FFC3BD"/>
<path d="M294.48 306.08L294.09 303.97C293.876 302.829 294.091 301.649 294.695 300.658C295.299 299.666 296.248 298.933 297.36 298.6L302.57 297.03L304.34 309.63L299.34 309.91C298.205 309.964 297.088 309.606 296.195 308.902C295.302 308.199 294.693 307.197 294.48 306.08V306.08Z" fill="#FFC3BD"/>
<path d="M309.76 181.87C309.043 182.269 308.235 182.473 307.415 182.464C306.596 182.454 305.792 182.231 305.085 181.816C304.378 181.401 303.792 180.808 303.384 180.097C302.976 179.385 302.761 178.58 302.76 177.76C309.32 181.93 331.68 171.82 330.3 183.35C313.83 184.2 313.85 179.57 309.76 181.87Z" fill="#263238"/>
<path d="M389.47 293.14H377.47L376.47 294.39V319.06L377.47 320.31H389.47L390.47 319.06V294.39L389.47 293.14Z" fill="#263238"/>
<path d="M388.9 292H378C377.849 292 377.704 292.06 377.597 292.167C377.49 292.274 377.43 292.419 377.43 292.57V292.57C377.429 292.645 377.442 292.72 377.471 292.79C377.499 292.86 377.541 292.923 377.594 292.976C377.647 293.029 377.711 293.071 377.78 293.099C377.85 293.128 377.925 293.141 378 293.14H388.9C389.051 293.14 389.196 293.08 389.303 292.973C389.41 292.866 389.47 292.721 389.47 292.57V292.57C389.467 292.42 389.407 292.276 389.3 292.17C389.194 292.063 389.05 292.003 388.9 292Z" fill="#E0E0E0"/>
<path d="M387.19 305.38H384.77L386.23 299.32L379.74 308.07H382.17L380.71 314.12L387.19 305.38Z" fill="white"/>
<path d="M229.77 249.89V274.56L228.77 275.81H216.77L215.77 274.56V249.89L216.77 248.64H228.77L229.77 249.89Z" fill="#263238"/>
<path d="M228.21 247.5H217.34C217.19 247.503 217.046 247.563 216.94 247.67C216.833 247.776 216.773 247.92 216.77 248.07V248.07C216.77 248.221 216.83 248.366 216.937 248.473C217.044 248.58 217.189 248.64 217.34 248.64H228.21C228.284 248.64 228.358 248.625 228.427 248.596C228.495 248.568 228.557 248.526 228.61 248.472C228.662 248.419 228.703 248.356 228.73 248.287C228.758 248.218 228.771 248.144 228.77 248.07C228.77 247.921 228.711 247.777 228.607 247.67C228.502 247.564 228.359 247.503 228.21 247.5V247.5Z" fill="#E0E0E0"/>
<path d="M220.13 260.88L215.77 266.75V259.39L219.16 254.82L217.7 260.88H220.13Z" fill="white"/>
<path d="M229.77 259.62V266.97L227.8 269.62L229.26 263.57H226.84L229.77 259.62Z" fill="white"/>
<path d="M409.1 303.96L408.79 307.42L408.82 310.33V310.34L408.92 319.28L407.93 320.38L395.94 320.26L394.93 319.14L394.83 310.32L394.8 307.39L395.09 303.98L395.7 296.62L396.8 295.61L408.75 296.67L409.65 297.87L409.1 303.96Z" fill="#263238"/>
<path d="M408.34 295.62L397.39 294.62C397.324 294.615 397.258 294.622 397.195 294.642C397.133 294.663 397.074 294.695 397.024 294.738C396.974 294.78 396.933 294.833 396.903 294.891C396.873 294.95 396.855 295.014 396.85 295.08V295.08C396.839 295.214 396.881 295.347 396.967 295.45C397.053 295.552 397.176 295.617 397.31 295.63L408.25 296.63C408.384 296.641 408.517 296.599 408.619 296.513C408.722 296.427 408.787 296.304 408.8 296.17C408.811 296.036 408.769 295.903 408.683 295.801C408.597 295.698 408.474 295.633 408.34 295.62V295.62Z" fill="#E0E0E0"/>
<path d="M397.51 307.09L394.83 310.32L394.8 307.39L395.09 303.98L397.04 301.85L395.09 307.07L397.51 307.09Z" fill="white"/>
<path d="M408.79 307.42L408.82 310.33V310.34L405.12 314.8L406.51 309.43L404.09 309.41L409.1 303.96L408.79 307.42Z" fill="white"/>
<path d="M310 417C309.01 417.188 308.007 417.295 307 417.32C305.06 417.41 303.14 417.54 301.68 417.76C300.22 417.98 299.31 418.32 299.68 418.64C300.05 418.96 302.2 419.31 302.02 419.64C301.84 419.97 300.02 420.21 298.34 420.41C297.255 420.526 296.177 420.7 295.11 420.93C294.25 421.13 293.74 421.38 294 421.62C294.458 421.872 294.961 422.032 295.48 422.09C298.832 422.588 302.225 422.755 305.61 422.59C309.21 422.44 312.18 421.96 313.2 421.39C313.345 421.299 313.504 421.232 313.67 421.19C314.411 421.07 315.16 421.006 315.91 421C319.91 420.85 324.12 420.92 328.22 421C329.53 421 330.89 421.05 332.16 421C333.363 420.946 334.56 420.799 335.74 420.56C336.98 420.3 337.93 419.97 337.28 419.66C336.63 419.35 333.95 419.14 331.61 419.1C330.143 419.136 328.675 419.055 327.22 418.86C326.22 418.62 327.22 418.3 328.56 418.11C329.9 417.92 331.56 417.79 332.56 417.55C333.14 417.4 333.39 417.23 333.47 417.05C333.55 416.87 333.47 416.72 332.93 416.59C331.635 416.367 330.324 416.25 329.01 416.24C327.69 416.18 326.28 416.13 325.01 416.24C324.01 416.3 323.23 416.42 322.38 416.52C321.408 416.641 320.429 416.687 319.45 416.66C318.478 416.628 317.519 416.422 316.62 416.05C315.361 415.72 314.07 415.522 312.77 415.46C311.136 415.29 309.49 415.26 307.85 415.37C307.34 415.45 307.32 415.58 307.49 415.69C308.205 415.973 308.945 416.191 309.7 416.34C310.64 416.58 310.68 416.81 310 417Z" fill="#FF5050"/>
<path d="M331.6 405H315.41C313.553 405 311.773 405.738 310.46 407.05C309.148 408.363 308.41 410.143 308.41 412C308.41 413.857 309.148 415.637 310.46 416.95C311.773 418.262 313.553 419 315.41 419H331.6C333.457 419 335.237 418.262 336.55 416.95C337.862 415.637 338.6 413.857 338.6 412C338.6 410.143 337.862 408.363 336.55 407.05C335.237 405.738 333.457 405 331.6 405V405Z" fill="#263238"/>
<path d="M327.82 408.24V410.66L323.58 409.2L329.71 415.69V413.27L333.96 414.73L327.82 408.24Z" fill="white"/>
<path d="M319.65 407.69C320.496 408.523 321.075 409.588 321.316 410.75C321.556 411.913 321.446 413.12 321 414.22C320.554 415.32 319.792 416.263 318.809 416.93C317.827 417.596 316.669 417.957 315.482 417.965C314.296 417.973 313.133 417.629 312.141 416.977C311.15 416.324 310.374 415.392 309.912 414.299C309.451 413.205 309.324 411.999 309.548 410.834C309.772 409.668 310.336 408.595 311.17 407.75C312.287 406.618 313.808 405.976 315.398 405.965C316.988 405.954 318.517 406.574 319.65 407.69V407.69Z" fill="#E0E0E0"/>
<path d="M318.9 415.39C318.645 415.644 318.3 415.787 317.94 415.787C317.58 415.787 317.235 415.644 316.98 415.39L315.67 414.1C315.416 413.845 315.273 413.5 315.273 413.14C315.273 412.78 315.416 412.435 315.67 412.18C315.796 412.053 315.947 411.952 316.112 411.883C316.278 411.814 316.456 411.778 316.635 411.778C316.814 411.778 316.992 411.814 317.158 411.883C317.323 411.952 317.474 412.053 317.6 412.18L318.9 413.46C319.155 413.717 319.298 414.063 319.298 414.425C319.298 414.787 319.155 415.133 318.9 415.39V415.39Z" fill="#263238"/>
<path d="M170.07 361.71H30.19L24.91 270.62H164.79L170.07 361.71Z" fill="#263238"/>
<path d="M145.01 346.86H142.23L138.67 285.47H141.45L145.01 346.86Z" fill="black"/>
<path d="M170.07 361.71H168.01L162.73 270.62H164.79L170.07 361.71Z" fill="black"/>
<path opacity="0.1" d="M142.23 346.86H49.97L46.41 285.47H138.67L142.23 346.86Z" fill="white"/>
<path opacity="0.3" d="M87.23 361.71H110.12L105.75 317.83H82.86L87.23 361.71Z" fill="black"/>
<path d="M95.7 369.89H72.61L81.13 316.16H104.22L95.7 369.89Z" fill="#263238"/>
<path d="M95.7 369.89H97.49L106.01 316.16H104.22L95.7 369.89Z" fill="black"/>
<path d="M62.46 343.97H53.23L53.09 342.99H62.32L62.46 343.97Z" fill="black"/>
<path d="M62.35 342.17H53.13L52.99 341.19H62.21L62.35 342.17Z" fill="black"/>
<path d="M62.25 340.36H53.02L52.88 339.39H62.11L62.25 340.36Z" fill="black"/>
<path d="M136.09 369.9H56.14C54.8822 369.899 53.6657 370.349 52.7102 371.167C51.7548 371.984 51.1233 373.117 50.93 374.36L42.59 428.46C42.378 429.834 42.4657 431.238 42.8473 432.575C43.2288 433.912 43.8951 435.151 44.8004 436.206C45.7057 437.262 46.8285 438.109 48.092 438.689C49.3554 439.27 50.7295 439.57 52.12 439.57H140.12C141.51 439.57 142.885 439.27 144.148 438.689C145.411 438.109 146.534 437.262 147.44 436.206C148.345 435.151 149.011 433.912 149.393 432.575C149.774 431.238 149.862 429.834 149.65 428.46L141.31 374.36C141.116 373.115 140.484 371.981 139.526 371.163C138.568 370.345 137.349 369.897 136.09 369.9V369.9Z" fill="#FF5050"/>
<path opacity="0.6" d="M136.09 369.9H56.14C54.8822 369.899 53.6657 370.349 52.7102 371.167C51.7548 371.984 51.1233 373.117 50.93 374.36L42.59 428.46C42.378 429.834 42.4657 431.238 42.8473 432.575C43.2288 433.912 43.8951 435.151 44.8004 436.206C45.7057 437.262 46.8285 438.109 48.092 438.689C49.3554 439.27 50.7295 439.57 52.12 439.57H140.12C141.51 439.57 142.885 439.27 144.148 438.689C145.411 438.109 146.534 437.262 147.44 436.206C148.345 435.151 149.011 433.912 149.393 432.575C149.774 431.238 149.862 429.834 149.65 428.46L141.31 374.36C141.116 373.115 140.484 371.981 139.526 371.163C138.568 370.345 137.349 369.897 136.09 369.9V369.9Z" fill="#263238"/>
<path d="M136.09 369.9H126.47C125.71 369.9 124.959 370.064 124.269 370.381C123.579 370.698 122.965 371.161 122.47 371.738C121.975 372.314 121.611 372.991 121.402 373.721C121.193 374.452 121.145 375.219 121.26 375.97L129.81 431.4C130.161 433.675 131.315 435.75 133.063 437.249C134.811 438.747 137.038 439.571 139.34 439.57H140.11C141.5 439.57 142.875 439.27 144.138 438.689C145.401 438.109 146.524 437.262 147.43 436.206C148.335 435.151 149.001 433.912 149.383 432.575C149.764 431.238 149.852 429.834 149.64 428.46L141.3 374.36C141.107 373.117 140.475 371.984 139.52 371.167C138.564 370.349 137.348 369.899 136.09 369.9V369.9Z" fill="#263238"/>
</svg>
